<?xml version="1.0" encoding="UTF-8"?>
<svg xmlns="http://www.w3.org/2000/svg" viewBox="0 0 2951.88 1660.43">
    <defs>
        <style>
            .cls-1{fill:#6eaf2b;}.cls-2{fill:#114c93;}.cls-2,.cls-3{font-size:22.52px;}.cls-2,.cls-3,.cls-4,.cls-5{font-family:Termina-Bold,
            Termina;font-weight:700;}.cls-6{fill:#091df4;}.cls-7{fill-rule:evenodd;}.cls-7,.cls-3,.cls-8{fill:#fff;}.cls-9{stroke-width:11.79px;}.cls-9,.cls-10,.cls-11,.cls-12,.cls-13,.cls-14{stroke-linecap:round;stroke-linejoin:round;}.cls-9,.cls-10,.cls-11,.cls-12,.cls-13,.cls-14,.cls-15{fill:none;}.cls-9,.cls-10,.cls-12{stroke:#114c93;}.cls-10{stroke-width:23.59px;}.cls-11,.cls-13{stroke:#072c75;stroke-width:10.72px;}.cls-11,.cls-16{opacity:.2;}.cls-17{fill:#d0060e;}.cls-18{fill:#449edb;}.cls-12{stroke-width:46.1px;}.cls-19{fill:#5d0387;}.cls-20{fill:#001f60;}.cls-21,.cls-22,.cls-4,.cls-5{fill:#001f60;}.cls-23{fill:#9b0813;opacity:.46;}.cls-22,.cls-15{opacity:.25;}.cls-4,.cls-5{font-size:11px;}.cls-24{fill:#ff922b;}.cls-25{fill:#114c93;}.cls-26,.cls-5{letter-spacing:.2em;}.cls-27{letter-spacing:.17em;}.cls-28{fill:#2e8bbf;}.cls-29{letter-spacing:0em;}.cls-30{fill:#609;}.cls-31{fill:#ddb33e;opacity:.64;}.cls-32{fill:#70009e;}.cls-14{stroke:#fff;stroke-width:7px;}.cls-33{fill:#f1ce61;}.cls-34{opacity:.8;}.cls-35{opacity:.05;}.cls-15{stroke:#001f60;stroke-miterlimit:10;}.cls-36{fill:#02871e;}.cls-37{fill:#009b28;}.cls-38{letter-spacing:-.11em;}.cls-39{fill:#002064;}.cls-40{letter-spacing:-.11em;}.cls-41{letter-spacing:-.13em;}.cls-42{letter-spacing:-.02em;}.cls-43{letter-spacing:-.02em;}.cls-44{letter-spacing:-.02em;}.cls-45{letter-spacing:-.02em;}.cls-46{letter-spacing:-.04em;}.cls-47{letter-spacing:-.04em;}.cls-48{letter-spacing:-.03em;}.cls-49{letter-spacing:-.03em;}.cls-50{letter-spacing:-.03em;}.cls-51{letter-spacing:-.03em;}.cls-52{fill:#90d8ec;}.cls-53{letter-spacing:0em;}.cls-54{letter-spacing:0em;}.cls-55{letter-spacing:0em;}.cls-56{fill:#80c63e;}</style>
    </defs>
    <g id="Background">
        <rect class="cls-21" x="-17.66" y="-14.56" width="2982.78" height="1696.69" />
    </g>
    <g id="Rivers_x2F_Water">
        <polyline class="cls-12"
            points="-84.63 686.07 47.42 818.12 207.02 818.12 335.7 946.8 474.02 946.8 573.2 847.62 730.09 690.73 884.86 690.73 974.97 780.84 1096.87 780.84 1450.41 427.3 1658.71 427.3 1732.12 500.71 1850.72 619.31 1850.72 950.53 1982.1 1083.31 2561.33 1083.31 2983.04 1505.01" />
        <path class="cls-9"
            d="M807.1,670.01v-103.22c0-5.72,2.27-11.2,6.31-15.24l11.37-11.37c4.04-4.04,6.31-9.52,6.31-15.24v-83.94c0-5.72-2.27-11.2-6.31-15.24l-11.04-11.04c-4.04-4.04-6.31-9.52-6.31-15.24v-247.27c0-12.61,5.01-24.71,13.93-33.63l85.43-85.43c4.04-4.04,9.52-6.31,15.24-6.31h211.69c5.72,0,11.2,2.27,15.24,6.31l11,11c4.04,4.04,9.52,6.31,15.24,6.31h60.03c5.72,0,11.2-2.27,15.24-6.31l69.98-69.98" />
        <polyline class="cls-10"
            points="1120.41 762.17 1302.46 944.22 1302.46 1069.99 1237.68 1134.77 1237.68 1333.59 1294.25 1390.16 1294.25 1491.36 1226.19 1559.42 1226.19 1697.39" />
        <polyline class="cls-10"
            points="1854.8 763.18 1894.18 802.57 1901.26 802.57 1939.23 764.6 1939.23 676.13 1956.63 658.73 1983.84 658.73 2016.18 626.39 2016.18 572.4 2059.76 528.82 2059.76 418.2 2157.52 320.44 2157.52 243.64 2226.89 243.64 2291.21 307.95 2527.46 307.95 2587.61 368.1 2703.96 368.1 3057.26 14.8" />
        <path class="cls-9"
            d="M805.26,214.62l-83.02-83.02c-3.81-3.81-8.97-5.95-14.35-5.95h-16.1c-11.31,0-20.47-9.16-20.47-20.47V-25.81" />
        <text class="cls-5" transform="translate(1302.71 579.64) rotate(-45)">
            <tspan x="0" y="0">OHIO RIVER</tspan>
        </text>
        <text class="cls-5" transform="translate(354.96 951.66)">
            <tspan x="0" y="0">OHIO RIVER</tspan>
        </text>
        <text class="cls-5" transform="translate(2159.29 1086.48)">
            <tspan x="0" y="0">OHIO RIVER</tspan>
        </text>
        <text class="cls-4" transform="translate(803.41 256.4) rotate(90)">
            <tspan class="cls-26" x="0" y="0">MIL</tspan>
            <tspan class="cls-27" x="31.62" y="0">L</tspan>
            <tspan class="cls-26" x="42.04" y="0" xml:space="preserve"> CREEK</tspan>
        </text>
        <text class="cls-5" transform="translate(1233.87 1171.16) rotate(90)">
            <tspan x="0" y="0">LICKING RIVER</tspan>
        </text>
    </g>
    <g id="Roads_x2F_Bridges">
        <polyline class="cls-13"
            points="1017.58 650.49 1141.88 650.49 1427.2 365.17 1685.2 365.17 1846.24 526.21 2063.01 309.44 2063.01 246.01 2133.76 175.25 2444.74 175.25 2597.22 327.73 2692.39 327.73 2724.37 295.74 3028.89 -8.78" />
        <polyline class="cls-13"
            points="1069.45 668.5 1153.45 668.5 1434.71 387.25 1675.19 387.25 1890.36 601.35 1890.36 679.42 1970.15 757.31 1970.15 783.86 1944.06 809.96 1944.06 838.26 1969.99 864.19 1969.99 964.86" />
        <line class="cls-13" x1="1198.5" y1="630.5" x2="1250.93" y2="682.93" />
        <polyline class="cls-13"
            points="1221.52 512.25 1239.35 494.43 1239.35 340.84 1394.51 185.67 1647.67 185.67 1762.04 71.3 1854.91 71.3 1975.49 -49.28" />
        <polyline class="cls-13"
            points="1207.94 551.05 1274.06 484.93 1274.06 369.65 1563.77 99.27 1639.31 23.73 1680.07 23.73 1680.07 -30.89" />
        <polyline class="cls-13"
            points="1066.18 615.27 1133.92 615.27 1133.92 615.27 1143.72 615.27 1208.56 550.43" />
        <polyline class="cls-13"
            points="1066.18 589.74 1143.62 589.74 1199.42 533.93 1223.27 510.09 1223.27 435.62 1194.41 406.76 1194.41 328.56 1428.04 94.93 1428.04 -48.41" />
        <polyline class="cls-13"
            points="-57.62 660.72 62.52 780.86 223.45 780.86 352.62 910.03 457.57 910.03 690.8 676.8 713.63 653.97 734.61 653.97 899.93 653.97 914.56 668.61 990.1 668.61 1066.18 668.61 1066.18 612.79 1066.18 499.85 1007.26 440.93 922.91 440.93 922.91 277.06 936.81 263.16 936.81 235.87 921.8 220.86 922.07 126.32 973.02 75.37 1134.54 75.37 1155.74 96.58 1251.97 96.58 1379.44 -30.89" />
        <polyline class="cls-13" points="1046.42 694.09 1046.42 679.95 1025.38 658.91" />
        <polyline class="cls-13"
            points="1028.58 688.72 1028.58 662.25 941.94 575.61 941.94 524.59 904.82 487.47 904.82 243.84 904.82 126.39 726.61 -51.82 726.61 -112.5" />
        <line class="cls-13" x1="1218.04" y1="605.22" x2="1261.54" y2="648.72" />
        <line class="cls-13" x1="1167.67" y1="655.59" x2="1211.17" y2="699.09" />
        <polyline class="cls-13"
            points="1854.91 1080.45 1970.5 964.86 2024.87 1019.23 2114.33 1019.23 2239.44 1019.23 2271.86 986.81 2338.48 986.81 2368.1 1016.43 2516.94 1016.43 2546.62 986.75 2710.2 986.75 2898.95 798 2898.95 553.63 3066.65 553.63" />
        <polyline class="cls-13"
            points="1087.57 803.91 1087.57 694.09 1050.48 694.09 1028.58 694.09" />
        <polyline class="cls-13" points="1028.58 811.92 1028.58 757.4 1028.58 658.91" />
        <polyline class="cls-13" points="1046.42 849.51 1046.4 803.91 1046.4 699.35" />
        <polyline class="cls-13"
            points="1028.51 803.91 1028.51 930.44 1071.31 973.24 1071.31 1048.29 978.07 1141.53 917.52 1141.53 892.66 1116.67 798.01 1116.67 639.62 1275.06 262.68 1275.06 209.54 1328.2 -30.22 1567.96 -30.22 1697.39" />
        <polyline class="cls-13"
            points="1357.68 693.31 1600.34 935.97 1600.34 1025.97 1551.63 1074.68 1551.63 1186.75 1649.88 1285.01 1854.67 1080.22" />
        <polyline class="cls-13" points="1229 616.19 1261.54 648.72 1331.9 719.09 1357.68 693.31" />
        <polyline class="cls-13"
            points="-30.22 911.64 25.35 967.21 120.06 967.21 246.82 1093.97 297.21 1093.97 503.95 1300.71 688.76 1485.52 897.11 1485.52 978.45 1566.86 1016.13 1566.86 1476.35 1566.86 1556.54 1486.66 1556.54 1378.35 1649.88 1285.01 1742.84 1377.97 1742.84 1535.6 1891.37 1684.13 1891.37 1766.2" />
        <line class="cls-13" x1="1140.61" y1="615.27" x2="1140.61" y2="589.74" />
        <polyline class="cls-13"
            points="1028.51 803.91 1028.51 930.44 1071.31 973.24 1071.31 1048.29" />
        <line class="cls-13" x1="2898.95" y1="553.63" x2="2898.95" y2="-42.52" />
    </g>
    <g id="AREA">
        <g class="cls-34">
            <path class="cls-52"
                d="M1965.91,1099.64l-131.83-133.13c-3.75-3.78-5.85-8.89-5.86-14.22l-.6-319.96c0-2.17-.87-4.25-2.4-5.78l-145.88-145.88.22-.21-28.95-28.95c-.77-.77-1.81-1.2-2.9-1.2h-186.01c-1.09,0-2.13.43-2.9,1.2l-71.97,72-96.86,96.86-1.99,1.99h-.01s-145.33,145.3-145.33,145.3l41.86,42.15,41.37,41.13,36.5-36.51c1.59-1.59,1.6-4.15.04-5.76l-33.63-34.64c-1.56-1.61-1.54-4.18.05-5.76l111.13-110.71,144.33-146.42c.77-.78,1.82-1.22,2.92-1.22h127.69c1.09,0,2.13.43,2.9,1.2l140.74,140.74c2.72,2.72,4.24,6.4,4.24,10.24v309.8c0,6.97,2.75,13.65,7.66,18.6l168.4,169.92c4.51,4.55,10.64,7.11,17.05,7.11h418.3c5.74,0,10.39-4.65,10.39-10.39v-51.37h-403.93c-5.53,0-10.83-2.21-14.72-6.14Z" />
            <path class="cls-52"
                d="M1209.19,867.63l-36.85,36.86c-2.58,2.58-6.09,4.04-9.74,4.04h-138.38l-61.97,69.1c-3.01,3.35-7.3,5.27-11.8,5.27h-273.96c-4.06,0-7.96-1.59-10.87-4.42l-24.8-24.18-70.47-71.21,98.34-98.39,69.81-69.99c.71-.71,1.67-1.11,2.68-1.11l132.39.07c1,0,1.96.4,2.67,1.11l82.46,82.33c4.55,4.55,10.74,7.09,17.17,7.06l121.77-.49c5.76-.01,11.28-2.31,15.36-6.38l12.92-12.91,54.68,54.66,28.58,28.58Z" />
        </g>
        <g class="cls-16">
            <polyline class="cls-13"
                points="1028.51 803.91 1028.51 930.44 1071.31 973.24 1071.31 1021.2" />
            <line class="cls-13" x1="1507.67" y1="843.3" x2="1357.68" y2="693.31" />
            <polyline class="cls-13"
                points="1229 616.19 1261.54 648.72 1331.9 719.09 1357.68 693.31" />
            <line class="cls-13" x1="1854.91" y1="1080.45" x2="1904.46" y2="1030.9" />
        </g>
    </g>
    <g id="BRM">
        <polygon class="cls-24"
            points="712.53 882.67 640.11 955 569.24 884.14 641.62 811.76 712.53 882.67" />
        <path class="cls-8"
            d="M627.49,837.89h-5.56q-.57,0-.57.57v2.19c0,2.21,1.08,3.49,2.35,4.43.21.16.44.26.44.52v4.02c0,.42-.15.57-.57.57h-1.34q-.52,0-.52.54t.52.56h4.94q.52,0,.52-.56,0-.54-.52-.54h-1.35c-.42,0-.57-.15-.57-.57v-4.02c0-.27.21-.39.44-.52,1.35-.81,2.35-2.23,2.35-4.43v-2.19q0-.57-.57-.57ZM633.2,837.89q-.45,0-.45.64v3.38c0,.71-.89.71-.89,0v-3.38q0-.64-.46-.64-.46,0-.46.64v3.38c0,.71-.9.71-.9,0v-3.38q0-.64-.42-.64-.46,0-.46.64v3.65c0,1.76,1.68,2.11,1.68,3.25,0,1.92-.56,2.93-.56,4.52,0,.89.56,1.34,1.13,1.34.54,0,1.09-.45,1.09-1.34.01-1.58-.55-2.6-.54-4.52,0-1.14,1.65-1.48,1.65-3.25v-3.65q0-.64-.42-.64Z" />
        <text class="cls-3" transform="translate(743.79 795.5)">
            <tspan class="cls-50" x="0" y="0">L</tspan>
            <tspan x="16.8" y="0">UD</tspan>
            <tspan class="cls-44" x="59.76" y="0">L</tspan>
            <tspan class="cls-49" x="76.67" y="0">O</tspan>
            <tspan class="cls-51" x="98.46" y="0">W</tspan>
        </text>
        <text class="cls-3" transform="translate(958.64 878.18)">
            <tspan class="cls-55" x="0" y="0">C</tspan>
            <tspan class="cls-46" x="20.06" y="0">O</tspan>
            <tspan x="41.68" y="0">VIN</tspan>
            <tspan class="cls-44" x="92.36" y="0">G</tspan>
            <tspan class="cls-43" x="113.35" y="0">T</tspan>
            <tspan x="131.2" y="0">ON</tspan>
        </text>
        <rect class="cls-21" x="960.05" y="538.25" width="184.09" height="27.47" />
        <text class="cls-2" transform="translate(963.7 559.27)">
            <tspan x="0" y="0">CINCINN</tspan>
            <tspan class="cls-38" x="124.06" y="0">A</tspan>
            <tspan x="142.73" y="0">TI</tspan>
        </text>
        <circle class="cls-20" cx="1047.59" cy="511.03" r="22.68" />
        <path class="cls-25"
            d="M1047.59,527.9c-9.3,0-16.87-7.57-16.87-16.87s7.57-16.87,16.87-16.87,16.87,7.57,16.87,16.87-7.57,16.87-16.87,16.87ZM1047.59,495.27c-8.69,0-15.76,7.07-15.76,15.76s7.07,15.76,15.76,15.76,15.76-7.07,15.76-15.76-7.07-15.76-15.76-15.76Z" />
        <path class="cls-25"
            d="M1047.38,501.43c.75,0,1.12.46,1.12.46.29.28.46.68.46,1.12s-.18.83-.46,1.12c-.29.28-.68.46-1.12.46s-.83-.18-1.12-.46c-.28-.28-.46-.68-.46-1.12s.18-.83.46-1.12c.28-.28.68-.46,1.12-.46M1047.38,505.35c.06,0,.11.02.16.05.05.03.08.08.1.13l1.37,3.85c.09.24.21.46.36.65.34.43.81.74,1.33.9.25.08.52.12.78.12.28,0,.56-.04.82-.14.22-.08.44-.19.63-.35l2.32-1.8c.05-.04.11-.06.17-.06,0,0,0,0,0,0,.05,0,.11.02.15.05.05.03.09.07.11.12s.03.11.01.18l-1.39,5.93h0s-13.86,0-13.86,0l-1.39-5.94c-.01-.06,0-.12.02-.17.02-.05.06-.09.11-.12.05-.03.1-.05.16-.05.05,0,.11.02.17.06l2.32,1.8c.2.15.41.27.63.35.26.09.54.14.82.14.26,0,.53-.04.78-.12.52-.16,1-.47,1.33-.9.15-.19.27-.41.36-.65l1.37-3.85c.02-.06.06-.11.1-.14.05-.03.1-.04.16-.04M1038.11,505.61c.37,0,.7.15.94.39.25.26.39.58.39.95s-.15.7-.39.95c-.24.24-.58.39-.95.39s-.7-.15-.95-.39c-.24-.24-.39-.58-.39-.95s.15-.7.39-.95c.24-.24.58-.39.95-.39M1056.64,505.61c.37,0,.71.15.95.39h0c.24.24.39.58.39.95s-.15.71-.39.95c-.24.24-.58.39-.95.39s-.7-.15-.95-.39c-.24-.24-.39-.58-.39-.95s.15-.7.39-.95c.24-.24.58-.39.95-.39M1039.06,506h0s0,0,0,0c0,0,0,0,0,0M1054.49,516.58c.18,0,.35.07.47.2.12.12.2.29.2.47v.81c0,.18-.07.35-.2.47-.12.12-.29.2-.47.2h-14.22c-.18,0-.35-.07-.47-.2-.12-.12-.2-.29-.2-.47v-.81c0-.18.07-.35.2-.47.12-.12.29-.2.47-.2h14.22M1047.38,500.28c-.73,0-1.42.28-1.93.8-.51.51-.8,1.2-.8,1.93s.28,1.42.8,1.93c.16.16.33.29.51.4l-1.3,3.66c-.04.12-.1.23-.18.33-.18.23-.45.41-.75.51-.15.04-.3.07-.45.07s-.3-.02-.44-.07c-.11-.04-.22-.1-.31-.17l-2.16-1.67c.15-.32.23-.68.23-1.04,0-.65-.25-1.27-.72-1.75,0,0,0,0-.01-.01h0s0,0,0,0c-.48-.47-1.1-.73-1.76-.73s-1.29.26-1.76.73c-.47.47-.73,1.1-.73,1.76s.26,1.29.73,1.76c.44.44,1,.69,1.61.73l1.36,5.82.09.39c-.16.08-.3.19-.43.32-.34.34-.53.8-.53,1.28v.81c0,.48.19.94.53,1.28.34.34.8.53,1.28.53h14.22c.48,0,.94-.19,1.28-.53.34-.34.53-.8.53-1.28v-.81c0-.48-.19-.94-.53-1.28-.13-.13-.28-.24-.43-.32l.09-.39,1.36-5.82c.61-.04,1.17-.29,1.61-.72.47-.47.73-1.1.73-1.76s-.26-1.29-.73-1.76c-.47-.47-1.1-.73-1.76-.73s-1.29.26-1.76.73c-.47.47-.73,1.09-.73,1.76,0,.37.08.72.23,1.04l-2.15,1.67c-.09.07-.2.13-.31.17-.14.05-.28.07-.44.07s-.3-.02-.45-.07c-.31-.09-.57-.27-.75-.5-.08-.1-.14-.21-.18-.33l-1.3-3.65c.18-.11.36-.25.51-.4.52-.52.8-1.2.8-1.93s-.27-1.38-.76-1.89c-.35-.4-1.05-.84-1.97-.84h0Z" />
    </g>
    <g id="LDW">
        <polygon class="cls-32"
            points="875.13 713.6 875.13 826.81 768.39 826.81 739.59 855.61 728.54 866.67 728.55 866.67 712.54 882.68 641.62 811.76 668.68 784.7 739.6 713.6 875.13 713.6" />
        <polygon class="cls-30"
            points="739.6 855.62 739.59 855.63 728.55 866.67 728.54 866.67 739.59 855.61 739.6 855.62" />
        <rect class="cls-19" x="694.86" y="736.09" width="53.49" height="21.97"
            transform="translate(-316.91 729.07) rotate(-45)" />
        <path class="cls-7"
            d="M733.35,730.77c0-.11-.03-.26-.07-.36-.03-.1-.09-.23-.14-.3-.05-.07-.14-.19-.21-.26-.07-.07-.18-.16-.25-.2-.06-.04-.19-.1-.28-.13-.13-.05-.21-.06-.39-.07-.12,0-.25,0-.27,0-.03,0-.12.03-.2.06-.08.02-.21.08-.28.12-.07.04-.18.12-.24.17-.06.05-.15.17-.2.25-.05.08-.12.22-.15.3-.03.08-.06.23-.08.32-.02.13-.02.22,0,.34.01.09.05.23.08.31.03.08.1.22.15.29.05.08.15.2.23.26.09.09.2.16.33.22.14.07.25.1.38.12.1.01.23.02.31,0,.08,0,.22-.04.3-.07.09-.03.23-.09.32-.16.1-.06.21-.16.29-.26.07-.08.16-.23.21-.32.05-.1.1-.25.12-.34.03-.12.04-.21.03-.35ZM737.73,731.96c-.03-.06-.1-.17-.15-.22-.05-.06-.15-.13-.22-.16-.08-.04-.16-.06-.27-.06h0c-.11,0-.18.01-.26.04-.06.02-.14.06-.18.1-.04.03-.23.21-.42.39-.19.18-.48.45-.64.6l-.29.27-1.54-.02c-.45-.36-.59-.47-.6-.47,0,0-.05.03-.11.07-.05.04-.16.11-.23.15-.07.04-.21.11-.31.14-.17.06-.21.06-.55.06-.37,0-.37,0-.58-.08-.12-.04-.27-.11-.34-.15-.07-.04-.22-.15-.32-.24l-.19-.17c-3.13.01-3.16.01-3.25.06-.05.03-.15.09-.21.13-.06.05-.28.24-.49.42-.21.18-.51.46-.68.61-.17.15-.38.34-.46.42-.09.09-.18.2-.2.26-.04.08-.05.14-.05.28s.01.2.06.31c.04.1.1.17.18.24.07.06.17.13.24.15.08.03.17.05.28.05.14,0,.18-.01.28-.06.06-.03.18-.12.26-.18.08-.07.36-.32.62-.56.26-.24.52-.47.57-.51l.1-.08c1.47-.01,1.61,0,1.67.02.05.02.08.05.09.09,0,.03,0,.09,0,.14,0,.04-.06.26-.12.49-.06.22-.16.61-.23.87-.07.25-.18.67-.25.93-.07.26-.15.56-.17.66-.02.1-.04.26-.04.36,0,.11.02.22.04.31.02.08.08.2.12.27.04.07.13.18.19.24.07.08.18.15.29.2.1.05.21.1.25.1.04,0,.08.02.07.03,0,.01.01.02.04.01.04,0,.05,0,.05.04,0,.04-.16.3-.48.8-.27.41-.52.81-.55.88-.04.11-.05.16-.04.3,0,.13.02.2.08.31.04.08.11.18.16.24.05.05.16.13.24.16.13.06.16.07.34.07.16,0,.22,0,.34-.05.09-.03.18-.09.25-.15.06-.06.22-.26.35-.45.13-.2.31-.45.38-.56.08-.11.21-.3.29-.42.08-.12.27-.4.43-.62.16-.22.33-.47.39-.56.06-.09.13-.2.16-.25.02-.05.06-.15.08-.23.03-.1.04-.2.03-.34,0-.16-.02-.22-.08-.34-.04-.08-.12-.2-.18-.26-.06-.07-.16-.15-.22-.19-.06-.04-.18-.08-.25-.1-.1-.03-.26-.03-.74-.03h-.61c-.11-.1-.15-.16-.16-.2-.01-.04,0-.11,0-.15.01-.04.06-.11.1-.15l.08-.07h1.48c.25.11.39.19.48.24.08.05.2.16.27.22.06.07.16.19.2.27.04.08.1.2.13.28.02.08.06.22.07.33.02.14.02.23-.01.41-.02.13-.03.24-.02.24,0,0,.19.02.42.02.35,0,.41,0,.46.04.04.03.05.05.04.1,0,.03-.08.17-.16.3-.08.14-.32.53-.53.89-.3.49-.39.67-.42.78-.03.1-.03.18-.02.26,0,.06.04.18.07.25.03.07.1.18.15.22.04.05.13.12.18.16.05.04.16.08.23.1.09.03.18.04.27.03.1,0,.19-.03.28-.07.08-.04.18-.1.22-.14.05-.04.12-.12.17-.18.04-.06.14-.21.21-.34.07-.12.19-.34.27-.48.08-.14.26-.46.41-.71.15-.26.36-.63.48-.82.12-.2.23-.41.26-.48.03-.06.06-.19.08-.28.02-.12.02-.21,0-.34-.02-.13-.05-.22-.11-.34-.05-.1-.13-.21-.22-.29-.08-.08-.19-.16-.27-.2-.08-.04-.19-.08-.25-.09-.06-.01-.57-.02-1.17-.03h-1.06c-.06-.09-.08-.13-.08-.15s.07-.28.15-.57c.08-.29.19-.68.24-.86.05-.18.11-.35.13-.38.02-.03.06-.06.09-.08.04-.02.33-.02,1.18-.03.96,0,1.16,0,1.25-.03.06-.02.15-.06.21-.1.05-.03.12-.09.15-.11s.34-.31.68-.62c.34-.32.7-.65.79-.74.13-.13.18-.19.22-.29.03-.09.05-.18.05-.29,0-.13,0-.19-.05-.28ZM737.13,740.57s-.08-.11-.12-.15c-.04-.04-.12-.08-.16-.09-.04-.01-.12-.02-.18-.02s-.14.01-.19.02c-.05.01-.14.04-.19.07-.06.03-.15.09-.2.15-.05.05-.14.18-.2.27-.05.1-.15.24-.21.31-.06.08-.15.17-.21.21-.06.04-.17.09-.25.12-.12.04-.2.05-.53.06h-.39c-.18.15-.29.22-.35.25-.06.03-.15.07-.2.08-.05.01-.16.04-.24.05-.11.02-.22.02-.34,0-.1-.01-.25-.05-.34-.08-.1-.04-.22-.11-.3-.17l-.14-.11h-1.93c-.19.15-.3.22-.36.25-.06.03-.17.07-.25.09-.08.02-.22.04-.35.04-.16,0-.26-.01-.39-.05-.09-.03-.21-.07-.27-.1-.06-.03-.15-.09-.22-.14l-.11-.09c-.57,0-.73-.01-.82-.04-.08-.02-.2-.06-.26-.09-.07-.03-.17-.11-.24-.18-.07-.06-.17-.21-.24-.32-.06-.11-.17-.25-.23-.31-.06-.06-.16-.14-.24-.17-.07-.03-.18-.07-.25-.08-.06-.01-.15-.02-.18-.02h0s-.09.01-.12.02c-.03,0-.09.04-.13.06s-.1.09-.13.14c-.05.09-.05.11-.05.41,0,.25.01.35.05.49.03.1.08.24.13.33.04.08.12.21.17.28.05.07.14.18.2.23.06.05.17.14.25.19.08.05.21.12.3.16.09.04.23.08.3.1.12.02.88.03,4.37.03,3.74,0,4.25,0,4.39-.03.09-.02.21-.06.28-.08.06-.03.19-.09.28-.15.09-.05.23-.16.31-.25.08-.08.19-.23.25-.32.06-.09.12-.22.15-.28.03-.06.06-.19.08-.28.02-.09.03-.26.03-.43,0-.22,0-.29-.04-.35Z" />
        <path class="cls-7"
            d="M735.03,744.18c-.01.07-.05.18-.08.24-.03.06-.1.16-.16.22-.06.06-.14.13-.19.16-.05.03-.15.07-.22.09-.1.03-.17.03-.29.02s-.2-.03-.31-.09c-.1-.05-.19-.11-.26-.19-.06-.06-.13-.17-.16-.23-.03-.06-.06-.17-.08-.24-.02-.09-.02-.17,0-.26.01-.07.05-.19.09-.27.04-.07.11-.18.16-.23.05-.05.14-.12.19-.15.05-.03.14-.06.2-.08.06-.02.18-.02.29-.02.15,0,.21.02.32.07.08.04.18.12.24.17s.13.16.17.23c.03.07.07.19.08.26.02.1.02.17,0,.26Z" />
        <path class="cls-7"
            d="M729.5,744.2c-.02.07-.05.18-.09.25-.03.06-.08.14-.11.17-.03.03-.1.09-.16.14-.06.05-.17.1-.25.12-.08.02-.19.04-.25.04-.06,0-.16-.02-.23-.03-.06-.02-.16-.06-.22-.09-.06-.03-.14-.1-.19-.15-.05-.05-.13-.15-.16-.23-.06-.13-.07-.16-.07-.38,0-.24,0-.25.08-.41.06-.13.11-.19.2-.26.06-.05.15-.11.2-.13.04-.02.12-.05.16-.06.04-.01.16-.02.27-.02.16,0,.21.02.33.08.08.04.19.12.25.18.06.06.14.16.17.22.03.06.06.18.08.26.02.12.02.18,0,.28Z" />
        <path class="cls-8"
            d="M721.33,757.57c-.06.12-.2.2-.36.2h-5.04v4.21c0,.17-.18.32-.39.32h-2.33c-.22,0-.39-.15-.39-.32v-4.21h-5.04c-.16,0-.3-.08-.36-.2s-.03-.25.07-.35l3.52-3.07h-2.06c-.15,0-.29-.08-.36-.2-.06-.12-.04-.26.07-.35l3.52-3.08h-1.89c-.15,0-.29-.07-.36-.19-.06-.12-.04-.26.07-.35l4.09-3.58c.14-.13.42-.13.57,0l4.08,3.58c.11.09.13.23.08.35-.06.12-.2.19-.36.19h-1.88l3.52,3.08c.11.09.13.23.07.35-.06.12-.2.2-.36.2h-2.06l3.52,3.07c.12.1.14.23.08.35Z" />
        <path class="cls-8"
            d="M689.45,772.53h-5.56q-.57,0-.57.57v2.19c0,2.21,1.08,3.49,2.35,4.43.21.16.44.26.44.52v4.02c0,.42-.15.57-.57.57h-1.34q-.52,0-.52.54t.52.56h4.94q.52,0,.52-.56,0-.54-.52-.54h-1.35c-.42,0-.57-.15-.57-.57v-4.02c0-.27.21-.39.44-.52,1.35-.81,2.35-2.23,2.35-4.43v-2.19q0-.57-.57-.57ZM695.16,772.53q-.45,0-.45.64v3.38c0,.71-.89.71-.89,0v-3.38q0-.64-.46-.64-.46,0-.46.64v3.38c0,.71-.9.71-.9,0v-3.38q0-.64-.42-.64-.46,0-.46.64v3.65c0,1.76,1.68,2.11,1.68,3.25,0,1.92-.56,2.93-.56,4.52,0,.89.56,1.34,1.13,1.34.54,0,1.09-.45,1.09-1.34.01-1.58-.55-2.6-.54-4.52,0-1.14,1.65-1.48,1.65-3.25v-3.65q0-.64-.42-.64Z" />
        <path class="cls-8"
            d="M786.27,747.61h-5.56q-.57,0-.57.57v2.19c0,2.21,1.08,3.49,2.35,4.43.21.16.44.26.44.52v4.02c0,.42-.15.57-.57.57h-1.34q-.52,0-.52.54t.52.56h4.94q.52,0,.52-.56,0-.54-.52-.54h-1.35c-.42,0-.57-.15-.57-.57v-4.02c0-.27.21-.39.44-.52,1.35-.81,2.35-2.23,2.35-4.43v-2.19q0-.57-.57-.57ZM791.98,747.61q-.45,0-.45.64v3.38c0,.71-.89.71-.89,0v-3.38q0-.64-.46-.64-.46,0-.46.64v3.38c0,.71-.9.71-.9,0v-3.38q0-.64-.42-.64-.46,0-.46.64v3.65c0,1.76,1.68,2.11,1.68,3.25,0,1.92-.56,2.93-.56,4.52,0,.89.56,1.34,1.13,1.34.54,0,1.09-.45,1.09-1.34.01-1.58-.55-2.6-.54-4.52,0-1.14,1.65-1.48,1.65-3.25v-3.65q0-.64-.42-.64Z" />
        <path class="cls-8"
            d="M658.02,805.06h-5.56q-.57,0-.57.57v2.19c0,2.21,1.08,3.49,2.35,4.43.21.16.44.26.44.52v4.02c0,.42-.15.57-.57.57h-1.34q-.52,0-.52.54t.52.56h4.94q.52,0,.52-.56,0-.54-.52-.54h-1.35c-.42,0-.57-.15-.57-.57v-4.02c0-.27.21-.39.44-.52,1.35-.81,2.35-2.23,2.35-4.43v-2.19q0-.57-.57-.57ZM663.73,805.06q-.45,0-.45.64v3.38c0,.71-.89.71-.89,0v-3.38q0-.64-.46-.64-.46,0-.46.64v3.38c0,.71-.9.71-.9,0v-3.38q0-.64-.42-.64-.46,0-.46.64v3.65c0,1.76,1.68,2.11,1.68,3.25,0,1.92-.56,2.93-.56,4.52,0,.89.56,1.34,1.13,1.34.54,0,1.09-.45,1.09-1.34.01-1.58-.55-2.6-.54-4.52,0-1.14,1.65-1.48,1.65-3.25v-3.65q0-.64-.42-.64Z" />
        <text class="cls-3" transform="translate(958.64 878.18)">
            <tspan class="cls-55" x="0" y="0">C</tspan>
            <tspan class="cls-46" x="20.06" y="0">O</tspan>
            <tspan x="41.68" y="0">VIN</tspan>
            <tspan class="cls-44" x="92.36" y="0">G</tspan>
            <tspan class="cls-43" x="113.35" y="0">T</tspan>
            <tspan x="131.2" y="0">ON</tspan>
        </text>
        <rect class="cls-21" x="960.05" y="538.25" width="184.09" height="27.47" />
        <text class="cls-2" transform="translate(963.7 559.27)">
            <tspan x="0" y="0">CINCINN</tspan>
            <tspan class="cls-38" x="124.06" y="0">A</tspan>
            <tspan x="142.73" y="0">TI</tspan>
        </text>
        <circle class="cls-20" cx="1047.59" cy="511.03" r="22.68" />
        <path class="cls-25"
            d="M1047.59,527.9c-9.3,0-16.87-7.57-16.87-16.87s7.57-16.87,16.87-16.87,16.87,7.57,16.87,16.87-7.57,16.87-16.87,16.87ZM1047.59,495.27c-8.69,0-15.76,7.07-15.76,15.76s7.07,15.76,15.76,15.76,15.76-7.07,15.76-15.76-7.07-15.76-15.76-15.76Z" />
        <path class="cls-25"
            d="M1047.38,501.43c.75,0,1.12.46,1.12.46.29.28.46.68.46,1.12s-.18.83-.46,1.12c-.29.28-.68.46-1.12.46s-.83-.18-1.12-.46c-.28-.28-.46-.68-.46-1.12s.18-.83.46-1.12c.28-.28.68-.46,1.12-.46M1047.38,505.35c.06,0,.11.02.16.05.05.03.08.08.1.13l1.37,3.85c.09.24.21.46.36.65.34.43.81.74,1.33.9.25.08.52.12.78.12.28,0,.56-.04.82-.14.22-.08.44-.19.63-.35l2.32-1.8c.05-.04.11-.06.17-.06,0,0,0,0,0,0,.05,0,.11.02.15.05.05.03.09.07.11.12s.03.11.01.18l-1.39,5.93h0s-13.86,0-13.86,0l-1.39-5.94c-.01-.06,0-.12.02-.17.02-.05.06-.09.11-.12.05-.03.1-.05.16-.05.05,0,.11.02.17.06l2.32,1.8c.2.15.41.27.63.35.26.09.54.14.82.14.26,0,.53-.04.78-.12.52-.16,1-.47,1.33-.9.15-.19.27-.41.36-.65l1.37-3.85c.02-.06.06-.11.1-.14.05-.03.1-.04.16-.04M1038.11,505.61c.37,0,.7.15.94.39.25.26.39.58.39.95s-.15.7-.39.95c-.24.24-.58.39-.95.39s-.7-.15-.95-.39c-.24-.24-.39-.58-.39-.95s.15-.7.39-.95c.24-.24.58-.39.95-.39M1056.64,505.61c.37,0,.71.15.95.39h0c.24.24.39.58.39.95s-.15.71-.39.95c-.24.24-.58.39-.95.39s-.7-.15-.95-.39c-.24-.24-.39-.58-.39-.95s.15-.7.39-.95c.24-.24.58-.39.95-.39M1039.06,506h0s0,0,0,0c0,0,0,0,0,0M1054.49,516.58c.18,0,.35.07.47.2.12.12.2.29.2.47v.81c0,.18-.07.35-.2.47-.12.12-.29.2-.47.2h-14.22c-.18,0-.35-.07-.47-.2-.12-.12-.2-.29-.2-.47v-.81c0-.18.07-.35.2-.47.12-.12.29-.2.47-.2h14.22M1047.38,500.28c-.73,0-1.42.28-1.93.8-.51.51-.8,1.2-.8,1.93s.28,1.42.8,1.93c.16.16.33.29.51.4l-1.3,3.66c-.04.12-.1.23-.18.33-.18.23-.45.41-.75.51-.15.04-.3.07-.45.07s-.3-.02-.44-.07c-.11-.04-.22-.1-.31-.17l-2.16-1.67c.15-.32.23-.68.23-1.04,0-.65-.25-1.27-.72-1.75,0,0,0,0-.01-.01h0s0,0,0,0c-.48-.47-1.1-.73-1.76-.73s-1.29.26-1.76.73c-.47.47-.73,1.1-.73,1.76s.26,1.29.73,1.76c.44.44,1,.69,1.61.73l1.36,5.82.09.39c-.16.08-.3.19-.43.32-.34.34-.53.8-.53,1.28v.81c0,.48.19.94.53,1.28.34.34.8.53,1.28.53h14.22c.48,0,.94-.19,1.28-.53.34-.34.53-.8.53-1.28v-.81c0-.48-.19-.94-.53-1.28-.13-.13-.28-.24-.43-.32l.09-.39,1.36-5.82c.61-.04,1.17-.29,1.61-.72.47-.47.73-1.1.73-1.76s-.26-1.29-.73-1.76c-.47-.47-1.1-.73-1.76-.73s-1.29.26-1.76.73c-.47.47-.73,1.09-.73,1.76,0,.37.08.72.23,1.04l-2.15,1.67c-.09.07-.2.13-.31.17-.14.05-.28.07-.44.07s-.3-.02-.45-.07c-.31-.09-.57-.27-.75-.5-.08-.1-.14-.21-.18-.33l-1.3-3.65c.18-.11.36-.25.51-.4.52-.52.8-1.2.8-1.93s-.27-1.38-.76-1.89c-.35-.4-1.05-.84-1.97-.84h0Z" />
        <rect class="cls-8" x="814.27" y="759.06" width="11.31" height=".89" />
        <rect class="cls-8" x="814.27" y="765.3" width="11.31" height=".89" />
        <path class="cls-8"
            d="M825.21,764.69c.09-.67.15-1.37.15-2.08s-.05-1.41-.15-2.08h-1.89c.06.67.08,1.36.08,2.08s-.03,1.41-.09,2.08h1.89Z" />
        <path class="cls-8"
            d="M824.84,758.49c-.3-1.07-.72-2.03-1.24-2.83h-1.22c.3.81.55,1.76.73,2.83h1.73Z" />
        <path class="cls-8"
            d="M822.84,762.61c0-.73-.03-1.42-.08-2.08h-2.68v4.17h2.68c.05-.66.09-1.35.09-2.08Z" />
        <path class="cls-8"
            d="M816.29,762.61c0-.72.03-1.42.08-2.08h-1.89c-.09.67-.15,1.37-.15,2.08s.05,1.41.15,2.08h1.89c-.06-.67-.09-1.36-.09-2.08Z" />
        <path class="cls-8"
            d="M819.48,760.52h-2.53c-.05.66-.08,1.35-.08,2.08s.03,1.42.09,2.08h2.53v-4.17Z" />
        <path class="cls-8" d="M822.54,758.49c-.19-1.11-.45-2.06-.75-2.83h-1.71v2.83h2.46Z" />
        <path class="cls-8" d="M820.08,766.83v2.83h1.71c.31-.77.57-1.72.75-2.83h-2.46Z" />
        <path class="cls-8"
            d="M823.11,766.83c-.18,1.06-.42,2.02-.73,2.83h1.22c.51-.8.94-1.76,1.24-2.83h-1.73Z" />
        <path class="cls-8" d="M819.48,758.49v-2.83h-1.56c-.31.77-.57,1.72-.75,2.83h2.31Z" />
        <path class="cls-8" d="M817.17,766.83c.19,1.11.45,2.06.75,2.83h1.56v-2.83h-2.31Z" />
        <path class="cls-8"
            d="M816.6,758.49c.18-1.06.42-2.02.73-2.83h-1.22c-.51.8-.94,1.76-1.24,2.83h1.73Z" />
        <path class="cls-8"
            d="M814.86,766.83c.3,1.07.72,2.03,1.24,2.83h1.22c-.3-.81-.55-1.76-.73-2.83h-1.73Z" />
    </g>
    <g id="COV">
        <path class="cls-6"
            d="M1209.19,867.63l-40.89,40.9h-144.09l-66.61,74.28h-287.54l-29.25-28.51,81.4-81.34,6.32-6.31,11.05-11.05,28.81-28.79,64.58-.11h42.16l-.08-113.03h.08l1.55,1.55,82.37,82.27c4.12,4.11,9.7,6.42,15.52,6.42l122.71-.23c5.82,0,11.39-2.08,15.51-6.19l13.14-13.11,54.68,54.66,28.58,28.58Z" />
        <polygon class="cls-6"
            points="640.81 954.3 670.06 982.81 668.66 982.81 640.18 955.07 640.79 954.46 640.72 954.39 640.81 954.3" />
        <polygon class="cls-6" points="875.05 713.6 875.12 713.67 875.05 713.67 875.05 713.6" />
        <polygon class="cls-6"
            points="728.54 866.66 768.39 826.81 889.07 826.81 889.07 869.14 728.54 866.66" />
        <polygon class="cls-22"
            points="768.39 827.3 832.97 827.19 875.13 827.19 875.13 859.67 908 859.67 922.67 859.67 936.07 873.06 999.33 873.06 999.33 936.28 985.79 951.37 945.2 951.37 933.55 951.37 920.03 964.89 902.09 982.83 668.66 982.83 640.72 954.88 722.21 873.45 728.53 867.14 739.58 856.09 768.39 827.3" />
        <path class="cls-8"
            d="M1095.68,810.36c.48.44,1.16.98,2.1,1.53l.6-1.04c-1.79-1.03-2.83-2.34-2.83-2.34l-.47-.59-.47.59s-2.87,3.53-7.04,3.53-7.04-3.53-7.04-3.53l-.47-.59-.47.59s-1.05,1.31-2.83,2.34l.6,1.04c.94-.54,1.62-1.08,2.1-1.53v5.44h-2.4v1.2h2.4v3.16h1.2v-3.16h13.82v3.16h1.2v-3.16h2.4v-1.2h-2.4v-5.44ZM1087.57,813.24c1.19,0,2.24-.22,3.15-.55v3.1h-6.31v-3.1c.92.33,1.97.55,3.16.55ZM1080.66,810.33c.55.54,1.41,1.26,2.55,1.85v3.62h-2.55v-5.47ZM1091.93,815.8v-3.62c1.15-.59,2.01-1.31,2.55-1.85v5.47h-2.55Z" />
        <rect class="cls-22" x="1115.7" y="798.91" width="22.83" height="22.83"
            transform="translate(903.11 -559.65) rotate(45)" />
        <path class="cls-8"
            d="M984.7,884.74h-1.34l-2.01-2.01h-3.35l-2,2.01h-.68v-.34c0-.18-.14-.34-.34-.34h-2c-.18,0-.34.14-.34.34v.34c-1.11,0-2,.89-2,2v7.34c0,1.11.89,2,2,2h12.03c1.11,0,2-.89,2-2v-7.34c.02-1.11-.87-2-1.98-2ZM974.66,887.41h-1.34v-1.34h1.34v1.34ZM979.67,894.85c-2.44,0-4.42-1.98-4.42-4.42s1.98-4.42,4.42-4.42,4.42,1.98,4.42,4.42-1.98,4.42-4.42,4.42Z" />
        <path class="cls-8"
            d="M979.67,887.41c-1.66,0-3.01,1.35-3.01,3.01s1.35,3.01,3.01,3.01,3.01-1.35,3.01-3.01-1.35-3.01-3.01-3.01Z" />
        <path class="cls-8"
            d="M1133.8,813.47c-.06.12-.2.2-.36.2h-5.04s0,4.21,0,4.21c0,.17-.18.32-.39.32h-2.33c-.22,0-.39-.15-.39-.32v-4.21s-5.04,0-5.04,0c-.16,0-.3-.08-.36-.2s-.03-.25.07-.35l3.52-3.07h-2.06c-.15,0-.29-.08-.36-.2-.06-.12-.04-.26.07-.35l3.52-3.08h-1.89c-.15,0-.29-.07-.36-.19-.06-.12-.04-.26.07-.35l4.09-3.58c.14-.13.42-.13.57,0l4.08,3.58c.11.09.13.23.08.35-.06.12-.2.19-.36.19h-1.88s3.52,3.08,3.52,3.08c.11.09.13.23.07.35-.06.12-.2.2-.36.2h-2.06s3.52,3.07,3.52,3.07c.12.1.14.23.08.35Z" />
        <rect class="cls-22" x="1174.89" y="858.1" width="22.83" height="22.83"
            transform="translate(962.3 -584.17) rotate(45)" />
        <path class="cls-8"
            d="M1192.99,872.66c-.06.12-.2.2-.36.2h-5.04s0,4.21,0,4.21c0,.17-.18.32-.39.32h-2.33c-.22,0-.39-.15-.39-.32v-4.21s-5.04,0-5.04,0c-.16,0-.3-.08-.36-.2s-.03-.25.07-.35l3.52-3.07h-2.06c-.15,0-.29-.08-.36-.2-.06-.12-.04-.26.07-.35l3.52-3.08h-1.89c-.15,0-.29-.07-.36-.19-.06-.12-.04-.26.07-.35l4.09-3.58c.14-.13.42-.13.57,0l4.08,3.58c.11.09.13.23.08.35-.06.12-.2.19-.36.19h-1.88s3.52,3.08,3.52,3.08c.11.09.13.23.07.35-.06.12-.2.2-.36.2h-2.06s3.52,3.07,3.52,3.07c.12.1.14.23.08.35Z" />
        <path class="cls-8"
            d="M820.91,893.87c-.06.12-.2.2-.36.2h-5.04v4.21c0,.17-.18.32-.39.32h-2.33c-.22,0-.39-.15-.39-.32v-4.21h-5.04c-.16,0-.3-.08-.36-.2s-.03-.25.07-.35l3.52-3.07h-2.06c-.15,0-.29-.08-.36-.2-.06-.12-.04-.26.07-.35l3.52-3.08h-1.89c-.15,0-.29-.07-.36-.19-.06-.12-.04-.26.07-.35l4.09-3.58c.14-.13.42-.13.57,0l4.08,3.58c.11.09.13.23.08.35-.06.12-.2.19-.36.19h-1.88l3.52,3.08c.11.09.13.23.07.35-.06.12-.2.2-.36.2h-2.06l3.52,3.07c.12.1.14.23.08.35Z" />
        <g class="cls-35">
            <polyline class="cls-13"
                points="1028.51 803.91 1028.51 930.44 1071.31 973.24 1071.31 1021.2" />
            <line class="cls-13" x1="1507.67" y1="843.3" x2="1357.68" y2="693.31" />
            <polyline class="cls-13"
                points="1229 616.19 1261.54 648.72 1331.9 719.09 1357.68 693.31" />
            <line class="cls-13" x1="1914.77" y1="1020.1" x2="1718.06" y2="1216.81" />
        </g>
        <rect class="cls-15" x="1047.35" y="856.67" width="25.04" height="43.19" />
        <path class="cls-8"
            d="M855.89,870.45l-6.93-4.01c-.17-.1-.38-.1-.53,0l-6.95,4.03c-.12.07-.2.19-.2.32v.6c.02.14.14.26.29.26h14.26c.15,0,.27-.12.27-.27v-.6c0-.14-.07-.26-.2-.32ZM848.68,870.04c-.43,0-.79-.34-.79-.79s.36-.79.79-.79.79.36.79.79-.36.79-.79.79Z" />
        <path class="cls-8"
            d="M850.73,882.59h5.41c.17,0,.31-.14.31-.31v-.72c.02-.17-.12-.31-.29-.31h-.58v-5.67c0-.17-.14-.31-.31-.31h-1.06v-2.87h-1.47v2.87h-1.72v-2.87h-1.47v2.87h-1.74v-2.87h-1.47v2.87h-1.72v-2.87h-1.47v2.87h-1.06c-.17,0-.31.14-.31.31v5.69h-.58c-.17,0-.31.14-.31.31v.72c0,.17.14.31.31.31h5.41c.1,0,.19-.09.19-.19v-3.35c0-1.02.8-1.91,1.83-1.93,1.04-.02,1.91.82,1.91,1.86v3.4c0,.1.09.19.19.19ZM852.22,878c0-.44.32-.84.77-.89.51-.05.94.34.94.85v1.49c-.02.12-.1.2-.2.2h-1.3c-.1,0-.2-.09-.2-.2v-1.45ZM845.17,879.45c-.02.12-.1.2-.2.2h-1.3c-.1,0-.2-.09-.2-.2v-1.45c0-.44.32-.84.77-.89.51-.05.94.34.94.85v1.49Z" />
        <path class="cls-8"
            d="M1060.09,869.52h-6.42q-.66,0-.66.66v2.53c0,2.55,1.25,4.04,2.72,5.12.24.18.5.3.5.61v4.64c0,.49-.17.66-.66.66h-1.55q-.61,0-.61.62t.61.64h5.71q.61,0,.61-.64,0-.62-.61-.62h-1.56c-.49,0-.66-.17-.66-.66v-4.64c0-.31.24-.45.5-.61,1.56-.94,2.72-2.58,2.72-5.12v-2.53q0-.66-.66-.66ZM1066.7,869.52q-.52,0-.52.73v3.91c0,.83-1.03.83-1.03,0v-3.91q0-.73-.53-.73-.53,0-.53.73v3.91c0,.83-1.04.83-1.04,0v-3.91q0-.73-.49-.73-.53,0-.53.73v4.22c0,2.04,1.95,2.44,1.95,3.75,0,2.22-.64,3.39-.64,5.22,0,1.03.64,1.55,1.3,1.55.62,0,1.26-.52,1.26-1.55.01-1.83-.63-3-.62-5.22,0-1.32,1.91-1.71,1.91-3.75v-4.22q0-.73-.49-.73Z" />
        <path class="cls-8"
            d="M1112.75,869.52h-6.42q-.66,0-.66.66v2.53c0,2.55,1.25,4.04,2.72,5.12.24.18.5.3.5.61v4.64c0,.49-.17.66-.66.66h-1.55q-.61,0-.61.62t.61.64h5.71q.61,0,.61-.64,0-.62-.61-.62h-1.56c-.49,0-.66-.17-.66-.66v-4.64c0-.31.24-.45.5-.61,1.56-.94,2.72-2.58,2.72-5.12v-2.53q0-.66-.66-.66ZM1119.35,869.52q-.52,0-.52.73v3.91c0,.83-1.03.83-1.03,0v-3.91q0-.73-.53-.73-.53,0-.53.73v3.91c0,.83-1.04.83-1.04,0v-3.91q0-.73-.49-.73-.53,0-.53.73v4.22c0,2.04,1.95,2.44,1.95,3.75,0,2.22-.64,3.39-.64,5.22,0,1.03.64,1.55,1.3,1.55.62,0,1.26-.52,1.26-1.55.01-1.83-.63-3-.62-5.22,0-1.32,1.91-1.71,1.91-3.75v-4.22q0-.73-.49-.73Z" />
        <polygon class="cls-6"
            points="957.6 982.81 957.52 982.9 670.15 982.9 670.06 982.81 957.6 982.81" />
        <rect class="cls-21" x="960.05" y="538.25" width="184.09" height="27.47" />
        <text class="cls-2" transform="translate(963.7 559.27)">
            <tspan x="0" y="0">CINCINN</tspan>
            <tspan class="cls-38" x="124.06" y="0">A</tspan>
            <tspan x="142.73" y="0">TI</tspan>
        </text>
        <circle class="cls-20" cx="1047.59" cy="511.03" r="22.68" />
        <path class="cls-25"
            d="M1047.59,527.9c-9.3,0-16.87-7.57-16.87-16.87s7.57-16.87,16.87-16.87,16.87,7.57,16.87,16.87-7.57,16.87-16.87,16.87ZM1047.59,495.27c-8.69,0-15.76,7.07-15.76,15.76s7.07,15.76,15.76,15.76,15.76-7.07,15.76-15.76-7.07-15.76-15.76-15.76Z" />
        <path class="cls-25"
            d="M1047.38,501.43c.75,0,1.12.46,1.12.46.29.28.46.68.46,1.12s-.18.83-.46,1.12c-.29.28-.68.46-1.12.46s-.83-.18-1.12-.46c-.28-.28-.46-.68-.46-1.12s.18-.83.46-1.12c.28-.28.68-.46,1.12-.46M1047.38,505.35c.06,0,.11.02.16.05.05.03.08.08.1.13l1.37,3.85c.09.24.21.46.36.65.34.43.81.74,1.33.9.25.08.52.12.78.12.28,0,.56-.04.82-.14.22-.08.44-.19.63-.35l2.32-1.8c.05-.04.11-.06.17-.06,0,0,0,0,0,0,.05,0,.11.02.15.05.05.03.09.07.11.12s.03.11.01.18l-1.39,5.93h0s-13.86,0-13.86,0l-1.39-5.94c-.01-.06,0-.12.02-.17.02-.05.06-.09.11-.12.05-.03.1-.05.16-.05.05,0,.11.02.17.06l2.32,1.8c.2.15.41.27.63.35.26.09.54.14.82.14.26,0,.53-.04.78-.12.52-.16,1-.47,1.33-.9.15-.19.27-.41.36-.65l1.37-3.85c.02-.06.06-.11.1-.14.05-.03.1-.04.16-.04M1038.11,505.61c.37,0,.7.15.94.39.25.26.39.58.39.95s-.15.7-.39.95c-.24.24-.58.39-.95.39s-.7-.15-.95-.39c-.24-.24-.39-.58-.39-.95s.15-.7.39-.95c.24-.24.58-.39.95-.39M1056.64,505.61c.37,0,.71.15.95.39h0c.24.24.39.58.39.95s-.15.71-.39.95c-.24.24-.58.39-.95.39s-.7-.15-.95-.39c-.24-.24-.39-.58-.39-.95s.15-.7.39-.95c.24-.24.58-.39.95-.39M1039.06,506h0s0,0,0,0c0,0,0,0,0,0M1054.49,516.58c.18,0,.35.07.47.2.12.12.2.29.2.47v.81c0,.18-.07.35-.2.47-.12.12-.29.2-.47.2h-14.22c-.18,0-.35-.07-.47-.2-.12-.12-.2-.29-.2-.47v-.81c0-.18.07-.35.2-.47.12-.12.29-.2.47-.2h14.22M1047.38,500.28c-.73,0-1.42.28-1.93.8-.51.51-.8,1.2-.8,1.93s.28,1.42.8,1.93c.16.16.33.29.51.4l-1.3,3.66c-.04.12-.1.23-.18.33-.18.23-.45.41-.75.51-.15.04-.3.07-.45.07s-.3-.02-.44-.07c-.11-.04-.22-.1-.31-.17l-2.16-1.67c.15-.32.23-.68.23-1.04,0-.65-.25-1.27-.72-1.75,0,0,0,0-.01-.01h0s0,0,0,0c-.48-.47-1.1-.73-1.76-.73s-1.29.26-1.76.73c-.47.47-.73,1.1-.73,1.76s.26,1.29.73,1.76c.44.44,1,.69,1.61.73l1.36,5.82.09.39c-.16.08-.3.19-.43.32-.34.34-.53.8-.53,1.28v.81c0,.48.19.94.53,1.28.34.34.8.53,1.28.53h14.22c.48,0,.94-.19,1.28-.53.34-.34.53-.8.53-1.28v-.81c0-.48-.19-.94-.53-1.28-.13-.13-.28-.24-.43-.32l.09-.39,1.36-5.82c.61-.04,1.17-.29,1.61-.72.47-.47.73-1.1.73-1.76s-.26-1.29-.73-1.76c-.47-.47-1.1-.73-1.76-.73s-1.29.26-1.76.73c-.47.47-.73,1.09-.73,1.76,0,.37.08.72.23,1.04l-2.15,1.67c-.09.07-.2.13-.31.17-.14.05-.28.07-.44.07s-.3-.02-.45-.07c-.31-.09-.57-.27-.75-.5-.08-.1-.14-.21-.18-.33l-1.3-3.65c.18-.11.36-.25.51-.4.52-.52.8-1.2.8-1.93s-.27-1.38-.76-1.89c-.35-.4-1.05-.84-1.97-.84h0Z" />
        <line class="cls-11" x1="1028.51" y1="803.91" x2="1028.51" y2="915.38" />
        <path class="cls-8"
            d="M1071.24,806.48h-14.19c-.37,0-.67.3-.67.67v14.19c0,.37.3.67.67.67h14.19c.37,0,.67-.3.67-.67v-14.19c0-.37-.3-.67-.67-.67ZM1070.57,807.83v10.36l-4.27-4.23c-.26-.26-.69-.26-.95,0l-1.73,1.72-2.64-2.64c-.26-.26-.69-.26-.95,0l-2.3,2.3v-7.51h12.84ZM1057.72,817.24l2.78-2.78,6.21,6.21h-8.99v-3.43ZM1068.61,820.67l-4.04-4.04,1.25-1.24,4.74,4.7v.58h-1.95ZM1063.07,812.84c.9,0,1.72-.54,2.06-1.38.35-.83.15-1.79-.48-2.43-.64-.64-1.6-.83-2.43-.48-.83.35-1.38,1.16-1.38,2.06,0,1.23,1,2.23,2.23,2.23Z" />
        <path class="cls-8"
            d="M1086.71,893.9v6.22c0,.32-.26.58-.58.58s-.58-.26-.58-.58v-6.22c0-.32.26-.58.58-.58s.58.26.58.58ZM1088.46,893.31c-.32,0-.58.26-.58.58v6.22c0,.32.26.58.58.58s.58-.26.58-.58v-6.22c0-.32-.26-.58-.58-.58ZM1090.79,893.31c-.32,0-.58.26-.58.58v6.22c0,.32.26.58.58.58s.58-.26.58-.58v-6.22c0-.32-.26-.58-.58-.58ZM1096.82,895.45v3.11c0,1.18-.96,2.14-2.14,2.14h-.97v.19c0,1.18-.96,2.14-2.14,2.14h-6.22c-1.18,0-2.14-.96-2.14-2.14v-8.55c0-.75.61-1.36,1.36-1.36h7.77c.75,0,1.36.61,1.36,1.36v.97h.97c1.18,0,2.14.96,2.14,2.14h0ZM1092.54,892.34c0-.11-.09-.19-.19-.19h-7.77c-.11,0-.19.09-.19.2v8.55c0,.54.44.97.97.97h6.22c.54,0,.97-.44.97-.97v-8.55h0ZM1095.65,895.45c0-.54-.44-.97-.97-.97h-.97v5.05h.97c.54,0,.97-.44.97-.97v-3.11ZM1084.57,889.81c.32,0,.58-.26.58-.58,0-.54.44-.97.97-.97.2,0,.38.06.54.17.15.1.34.13.51.07.17-.06.31-.19.37-.36.14-.39.5-.65.91-.65s.78.26.91.65c.06.17.2.3.37.36.17.06.36.03.51-.07.16-.11.35-.17.54-.17.54,0,.97.44.97.97,0,.32.26.58.58.58s.58-.26.58-.58c0-1.18-.96-2.14-2.14-2.14-.21,0-.42.03-.62.09-.4-.54-1.03-.87-1.71-.87s-1.32.33-1.71.87c-.2-.06-.41-.09-.62-.09-1.18,0-2.14.96-2.14,2.14,0,.32.26.58.58.58h0Z" />
    </g>
    <g id="NWP">
        <path class="cls-17"
            d="M1228.77,774.03l36.45,37.54s-29.37,29.51-39.35,39.37c-32.21-32.03-41.38-41.14-41.38-41.14l-41.86-42.14,145.33-145.32h.01s43.41,43.76,43.41,43.76l-102.56,102.18c-1.59,1.58-1.61,4.14-.05,5.75Z" />
        <rect class="cls-23" x="1145.72" y="753.3" width="31.52" height="21.78"
            transform="translate(-200.18 1045.12) rotate(-45)" />
        <rect class="cls-23" x="1157.2" y="785.05" width="58.28" height="21.78"
            transform="translate(910.29 -605.74) rotate(45)" />
        <path class="cls-8"
            d="M1168.1,771.57c-.06.12-.2.2-.36.2h-5.04v4.21c0,.17-.18.32-.39.32h-2.33c-.22,0-.39-.15-.39-.32v-4.21h-5.04c-.16,0-.3-.08-.36-.2s-.03-.25.07-.35l3.52-3.07h-2.06c-.15,0-.29-.08-.36-.2-.06-.12-.04-.26.07-.35l3.52-3.08h-1.89c-.15,0-.29-.07-.36-.19-.06-.12-.04-.26.07-.35l4.09-3.58c.14-.13.42-.13.57,0l4.08,3.58c.11.09.13.23.08.35-.06.12-.2.19-.36.19h-1.88l3.52,3.08c.11.09.13.23.07.35-.06.12-.2.2-.36.2h-2.06l3.52,3.07c.12.1.14.23.08.35Z" />
        <rect class="cls-23" x="1274.09" y="683.52" width="20.78" height="20.78"
            transform="translate(-114.45 1111.51) rotate(-45)" />
        <path class="cls-8"
            d="M1290.79,696.43c-.06.1-.19.18-.33.18h-4.57v3.82c0,.15-.16.29-.35.29h-2.11c-.2,0-.35-.14-.35-.29v-3.82h-4.57c-.14,0-.27-.07-.33-.18s-.02-.23.06-.31l3.19-2.79h-1.87c-.14,0-.27-.07-.32-.18-.06-.1-.03-.23.06-.31l3.19-2.79h-1.71c-.14,0-.27-.06-.32-.17-.06-.1-.03-.23.06-.31l3.71-3.24c.13-.12.38-.12.52,0l3.7,3.24c.1.08.12.21.07.31-.06.1-.19.17-.33.17h-1.71l3.19,2.79c.1.08.12.21.06.31-.06.1-.19.18-.33.18h-1.87l3.19,2.79c.1.09.13.21.07.31Z" />
        <rect class="cls-23" x="1223.63" y="810.27" width="20.78" height="20.78"
            transform="translate(-218.86 1112.95) rotate(-45)" />
        <path class="cls-8"
            d="M1240.33,823.18c-.06.1-.19.18-.33.18h-4.57v3.82c0,.15-.16.29-.35.29h-2.11c-.2,0-.35-.14-.35-.29v-3.82h-4.57c-.14,0-.27-.07-.33-.18s-.02-.23.06-.31l3.19-2.79h-1.87c-.14,0-.27-.07-.32-.18-.06-.1-.03-.23.06-.31l3.19-2.79h-1.71c-.14,0-.27-.06-.32-.17-.06-.1-.03-.23.06-.31l3.71-3.24c.13-.12.38-.12.52,0l3.7,3.24c.1.08.12.21.07.31-.06.1-.19.17-.33.17h-1.71l3.19,2.79c.1.08.12.21.06.31-.06.1-.19.18-.33.18h-1.87l3.19,2.79c.1.09.13.21.07.31Z" />
        <path class="cls-8"
            d="M1255.72,673.23c.42.39,1.02.87,1.85,1.35l.53-.92c-1.57-.91-2.5-2.06-2.5-2.06l-.41-.52-.41.52s-2.53,3.11-6.21,3.11-6.21-3.11-6.21-3.11l-.41-.52-.41.52s-.92,1.15-2.5,2.06l.53.92c.83-.48,1.43-.96,1.85-1.35v4.79h-2.12v1.06h2.12v2.78h1.06v-2.78h12.19v2.78h1.06v-2.78h2.12v-1.06h-2.12v-4.8ZM1248.57,675.77c1.05,0,1.97-.19,2.78-.48v2.73h-5.56v-2.73c.81.29,1.74.48,2.78.48ZM1242.47,673.2c.48.47,1.24,1.11,2.25,1.63v3.19h-2.25v-4.82ZM1252.41,678.02v-3.19c1.01-.52,1.77-1.16,2.25-1.63v4.82h-2.25Z" />
        <path class="cls-8"
            d="M1242.98,686.5c-.29.35-.63.65-1.01.9-.28.18-.59.31-.88.48.02-.17.07-.37-.06-.5-.17-.14-.36-.25-.56-.31-.37-.14-.77-.2-1.17-.18-.09.02-.17.08-.21.17-.04.08-.04.18.01.27.14.08.31.13.48.14.36.04.72.16,1.03.35.04.03.07.08.09.13-.4.2-.83.34-1.27.42-.46.1-.94.15-1.41.25-.43.08-.86.14-1.3.17-.24.04-.48.07-.72.09h-.28c.29-.51.49-1.07.61-1.65.03-.38.02-.77.02-1.15.02-.12-.03-.24-.13-.3-.07-.04-.15-.04-.22,0-.07.03-.12.1-.13.18,0,.24,0,.47-.02.71.01.17-.01.33-.04.5-.09.32-.21.62-.35.92-.15.3-.33.6-.52.88-.12.17-.24.33-.37.49-.17.18-.33.37-.49.54-.42.4-.87.74-1.37,1.03-.26.16-.53.29-.81.4-.19.09-.39.14-.6.15.02-.09.06-.16.12-.23.28-.38.54-.78.8-1.18.17-.26.31-.53.46-.81.21-.4.35-.85.4-1.3.02-.31.02-.62-.01-.92,0-.03,0-.08-.05-.08-.22-.03-.44-.01-.66-.06.09.24.13.49.13.74,0,.15-.02.31-.05.46-.07.32-.16.63-.24.95-.35.03-.69.09-1.04.14-.09.01-.18.03-.26.06-.39.08-.78.19-1.15.31-.09.04-.18.09-.26.15,0,.2-.06.4-.16.57-.12.19-.21.39-.26.6-.06.19-.11.37-.15.56-.21.03-.36-.14-.5-.27-.15-.15-.35-.23-.56-.23-.03.01-.06.01-.08.01-.26.01-.51.13-.68.33-.01.02-.03.04-.05.06-.31.91-.12,1.92.49,2.66.15.16.33.29.52.4.26.14.53.27.82.36.15.06.32.1.48.11.09-.01.18-.05.25-.11.53-.36,1.08-.69,1.66-.97.21-.09.42-.2.64-.27.71-.3,1.46-.49,2.24-.57.32-.05.66-.02.97.09.01.05,0,.1-.05.13-.19.17-.41.33-.63.46-.43.29-.84.61-1.24.95-.36.3-.7.65-.99,1.03-.07.09-.12.19-.18.28-.12.14-.19.31-.31.44-.08.21-.21.38-.29.58-.08.16-.14.33-.19.5-.09.28-.16.56-.2.85-.12.82-.07,1.65.12,2.45.06.26.14.51.22.75.05.11.07.23.08.35-.12-.02-.23-.07-.33-.15-.24-.17-.48-.37-.7-.57-.33-.32-.64-.67-.9-1.05-.34-.54-.62-1.12-.83-1.73-.18-.51-.32-1.04-.41-1.57-.07-.07-.15-.12-.23-.16-.32-.17-.62-.38-.9-.6-.42-.31-.8-.66-1.14-1.04-.14-.17-.29-.33-.42-.51-.36-.55-.59-1.18-.67-1.84-.06-.76.05-1.53.31-2.25.18-.49.42-.96.71-1.39.25-.37.52-.71.83-1.04.26-.28.54-.54.83-.79.56-.47,1.18-.89,1.83-1.24.29-.17.6-.32.92-.44.18-.09.38-.15.58-.19.02-.11.03-.22.02-.33,0-.44-.07-.87-.2-1.28-.1-.37-.23-.72-.39-1.07-.02-.02-.02-.04-.02-.07.01-.03.02-.05.05-.06.06-.01.12-.01.18.01,1.09.25,2.1.74,2.98,1.43.17.11.34.22.5.35.09.07.17.18.29.21.73-.06,1.48-.07,2.22-.05.44.02.89.03,1.33.07.33.03.65.09.98.12.33.04.67.1.99.17.29.09.6.13.89.22.6.14,1.19.33,1.77.56.22.06.42.18.57.35.1.18-.01.37-.12.52Z" />
        <path class="cls-8"
            d="M1241.52,687.65s-.72.43-1.68.63-1.96-2.33-1.96-2.33c0,0,2.54.33,2.58.35s1.13.59,1.13.59l-.08.77Z" />
        <path class="cls-8"
            d="M1205.47,712.39h-5.56q-.57,0-.57.57v2.19c0,2.21,1.08,3.49,2.35,4.43.21.16.44.26.44.52v4.02c0,.42-.15.57-.57.57h-1.34q-.52,0-.52.54t.52.56h4.94q.52,0,.52-.56,0-.54-.52-.54h-1.35c-.42,0-.57-.15-.57-.57v-4.02c0-.27.21-.39.44-.52,1.35-.81,2.35-2.23,2.35-4.43v-2.19q0-.57-.57-.57ZM1211.18,712.39q-.45,0-.45.64v3.38c0,.71-.89.71-.89,0v-3.38q0-.64-.46-.64-.46,0-.46.64v3.38c0,.71-.9.71-.9,0v-3.38q0-.64-.42-.64-.46,0-.46.64v3.65c0,1.76,1.68,2.11,1.68,3.25,0,1.92-.56,2.93-.56,4.52,0,.89.56,1.34,1.13,1.34.54,0,1.09-.45,1.09-1.34.01-1.58-.55-2.6-.54-4.52,0-1.14,1.65-1.48,1.65-3.25v-3.65q0-.64-.42-.64Z" />
        <path class="cls-8"
            d="M1264.19,711.39h-5.56q-.57,0-.57.57v2.19c0,2.21,1.08,3.49,2.35,4.43.21.16.44.26.44.52v4.02c0,.42-.15.57-.57.57h-1.34q-.52,0-.52.54t.52.56h4.94q.52,0,.52-.56,0-.54-.52-.54h-1.35c-.42,0-.57-.15-.57-.57v-4.02c0-.27.21-.39.44-.52,1.35-.81,2.35-2.23,2.35-4.43v-2.19q0-.57-.57-.57ZM1269.9,711.39q-.45,0-.45.64v3.38c0,.71-.89.71-.89,0v-3.38q0-.64-.46-.64-.46,0-.46.64v3.38c0,.71-.9.71-.9,0v-3.38q0-.64-.42-.64-.46,0-.46.64v3.65c0,1.76,1.68,2.11,1.68,3.25,0,1.92-.56,2.93-.56,4.52,0,.89.56,1.34,1.13,1.34.54,0,1.09-.45,1.09-1.34.01-1.58-.55-2.6-.54-4.52,0-1.14,1.65-1.48,1.65-3.25v-3.65q0-.64-.42-.64Z" />
        <path class="cls-8"
            d="M1177.89,747.89h-1.19l-1.79-1.79h-2.98l-1.78,1.79h-.6v-.3c0-.16-.13-.3-.3-.3h-1.78c-.16,0-.3.13-.3.3v.3c-.98,0-1.78.79-1.78,1.78v6.53c0,.98.79,1.78,1.78,1.78h10.7c.98,0,1.78-.79,1.78-1.78v-6.53c.02-.98-.78-1.78-1.76-1.78ZM1168.96,750.27h-1.19v-1.19h1.19v1.19ZM1173.42,756.88c-2.17,0-3.93-1.76-3.93-3.93s1.76-3.93,3.93-3.93,3.93,1.76,3.93,3.93-1.76,3.93-3.93,3.93Z" />
        <path class="cls-8"
            d="M1173.42,750.27c-1.47,0-2.68,1.21-2.68,2.68s1.21,2.68,2.68,2.68,2.68-1.21,2.68-2.68-1.21-2.68-2.68-2.68Z" />
        <line class="cls-52" x1="1207.47" y1="832.66" x2="1142.63" y2="767.67" />
        <rect class="cls-21" x="960.05" y="538.25" width="184.09" height="27.47" />
        <text class="cls-2" transform="translate(963.7 559.27)">
            <tspan x="0" y="0">CINCINN</tspan>
            <tspan class="cls-38" x="124.06" y="0">A</tspan>
            <tspan x="142.73" y="0">TI</tspan>
        </text>
        <circle class="cls-20" cx="1047.59" cy="511.03" r="22.68" />
        <path class="cls-25"
            d="M1047.59,527.9c-9.3,0-16.87-7.57-16.87-16.87s7.57-16.87,16.87-16.87,16.87,7.57,16.87,16.87-7.57,16.87-16.87,16.87ZM1047.59,495.27c-8.69,0-15.76,7.07-15.76,15.76s7.07,15.76,15.76,15.76,15.76-7.07,15.76-15.76-7.07-15.76-15.76-15.76Z" />
        <path class="cls-25"
            d="M1047.38,501.43c.75,0,1.12.46,1.12.46.29.28.46.68.46,1.12s-.18.83-.46,1.12c-.29.28-.68.46-1.12.46s-.83-.18-1.12-.46c-.28-.28-.46-.68-.46-1.12s.18-.83.46-1.12c.28-.28.68-.46,1.12-.46M1047.38,505.35c.06,0,.11.02.16.05.05.03.08.08.1.13l1.37,3.85c.09.24.21.46.36.65.34.43.81.74,1.33.9.25.08.52.12.78.12.28,0,.56-.04.82-.14.22-.08.44-.19.63-.35l2.32-1.8c.05-.04.11-.06.17-.06,0,0,0,0,0,0,.05,0,.11.02.15.05.05.03.09.07.11.12s.03.11.01.18l-1.39,5.93h0s-13.86,0-13.86,0l-1.39-5.94c-.01-.06,0-.12.02-.17.02-.05.06-.09.11-.12.05-.03.1-.05.16-.05.05,0,.11.02.17.06l2.32,1.8c.2.15.41.27.63.35.26.09.54.14.82.14.26,0,.53-.04.78-.12.52-.16,1-.47,1.33-.9.15-.19.27-.41.36-.65l1.37-3.85c.02-.06.06-.11.1-.14.05-.03.1-.04.16-.04M1038.11,505.61c.37,0,.7.15.94.39.25.26.39.58.39.95s-.15.7-.39.95c-.24.24-.58.39-.95.39s-.7-.15-.95-.39c-.24-.24-.39-.58-.39-.95s.15-.7.39-.95c.24-.24.58-.39.95-.39M1056.64,505.61c.37,0,.71.15.95.39h0c.24.24.39.58.39.95s-.15.71-.39.95c-.24.24-.58.39-.95.39s-.7-.15-.95-.39c-.24-.24-.39-.58-.39-.95s.15-.7.39-.95c.24-.24.58-.39.95-.39M1039.06,506h0s0,0,0,0c0,0,0,0,0,0M1054.49,516.58c.18,0,.35.07.47.2.12.12.2.29.2.47v.81c0,.18-.07.35-.2.47-.12.12-.29.2-.47.2h-14.22c-.18,0-.35-.07-.47-.2-.12-.12-.2-.29-.2-.47v-.81c0-.18.07-.35.2-.47.12-.12.29-.2.47-.2h14.22M1047.38,500.28c-.73,0-1.42.28-1.93.8-.51.51-.8,1.2-.8,1.93s.28,1.42.8,1.93c.16.16.33.29.51.4l-1.3,3.66c-.04.12-.1.23-.18.33-.18.23-.45.41-.75.51-.15.04-.3.07-.45.07s-.3-.02-.44-.07c-.11-.04-.22-.1-.31-.17l-2.16-1.67c.15-.32.23-.68.23-1.04,0-.65-.25-1.27-.72-1.75,0,0,0,0-.01-.01h0s0,0,0,0c-.48-.47-1.1-.73-1.76-.73s-1.29.26-1.76.73c-.47.47-.73,1.1-.73,1.76s.26,1.29.73,1.76c.44.44,1,.69,1.61.73l1.36,5.82.09.39c-.16.08-.3.19-.43.32-.34.34-.53.8-.53,1.28v.81c0,.48.19.94.53,1.28.34.34.8.53,1.28.53h14.22c.48,0,.94-.19,1.28-.53.34-.34.53-.8.53-1.28v-.81c0-.48-.19-.94-.53-1.28-.13-.13-.28-.24-.43-.32l.09-.39,1.36-5.82c.61-.04,1.17-.29,1.61-.72.47-.47.73-1.1.73-1.76s-.26-1.29-.73-1.76c-.47-.47-1.1-.73-1.76-.73s-1.29.26-1.76.73c-.47.47-.73,1.09-.73,1.76,0,.37.08.72.23,1.04l-2.15,1.67c-.09.07-.2.13-.31.17-.14.05-.28.07-.44.07s-.3-.02-.45-.07c-.31-.09-.57-.27-.75-.5-.08-.1-.14-.21-.18-.33l-1.3-3.65c.18-.11.36-.25.51-.4.52-.52.8-1.2.8-1.93s-.27-1.38-.76-1.89c-.35-.4-1.05-.84-1.97-.84h0Z" />
        <rect class="cls-8" x="1301.53" y="657.24" width="12.43" height=".98" />
        <rect class="cls-8" x="1301.53" y="664.1" width="12.43" height=".98" />
        <path class="cls-8"
            d="M1313.55,663.43c.1-.74.16-1.5.16-2.29s-.06-1.55-.16-2.29h-2.08c.06.73.09,1.5.09,2.29s-.03,1.55-.09,2.29h2.08Z" />
        <path class="cls-8"
            d="M1313.15,656.61c-.33-1.18-.79-2.23-1.36-3.11h-1.34c.33.89.6,1.94.8,3.11h1.91Z" />
        <path class="cls-8"
            d="M1310.95,661.14c0-.8-.03-1.57-.09-2.29h-2.95v4.58h2.95c.06-.72.09-1.49.09-2.29Z" />
        <path class="cls-8"
            d="M1303.75,661.14c0-.79.03-1.56.09-2.29h-2.08c-.1.74-.16,1.5-.16,2.29s.06,1.55.16,2.29h2.08c-.06-.74-.09-1.5-.09-2.29Z" />
        <path class="cls-8"
            d="M1307.25,658.85h-2.78c-.06.72-.09,1.49-.09,2.29s.03,1.57.09,2.29h2.78v-4.58Z" />
        <path class="cls-8" d="M1310.61,656.61c-.2-1.21-.49-2.26-.83-3.11h-1.88v3.11h2.71Z" />
        <path class="cls-8" d="M1307.91,665.78v3.11h1.88c.34-.84.62-1.89.83-3.11h-2.71Z" />
        <path class="cls-8"
            d="M1311.24,665.78c-.19,1.17-.46,2.22-.8,3.11h1.34c.57-.88,1.03-1.93,1.36-3.11h-1.91Z" />
        <path class="cls-8" d="M1307.25,656.61v-3.11h-1.71c-.34.85-.62,1.89-.83,3.11h2.54Z" />
        <path class="cls-8" d="M1304.71,665.78c.2,1.21.49,2.26.83,3.11h1.71v-3.11h-2.54Z" />
        <path class="cls-8"
            d="M1304.08,656.61c.19-1.17.46-2.22.8-3.11h-1.34c-.57.88-1.03,1.93-1.36,3.11h1.91Z" />
        <path class="cls-8"
            d="M1302.18,665.78c.33,1.18.79,2.23,1.36,3.11h1.34c-.33-.89-.6-1.94-.8-3.11h-1.91Z" />
    </g>
    <g id="BLV">
        <polygon class="cls-33"
            points="1429.77 566.45 1339.95 657.57 1331.04 666.44 1287.46 622.88 1386.83 523.51 1429.77 566.45" />
        <rect class="cls-31" x="1376.06" y="527.92" width="21.52" height="21.52"
            transform="translate(25.28 1138.41) rotate(-45)" />
        <path class="cls-8"
            d="M1393.36,541.29c-.06.11-.19.18-.34.18h-4.74v3.95c0,.16-.17.3-.37.3h-2.18c-.21,0-.37-.14-.37-.3v-3.95h-4.74c-.15,0-.28-.08-.34-.18s-.03-.23.07-.33l3.3-2.89h-1.93c-.14,0-.28-.08-.33-.18-.06-.11-.03-.24.07-.33l3.3-2.89h-1.78c-.14,0-.28-.07-.33-.18-.06-.11-.03-.24.07-.33l3.84-3.36c.13-.13.39-.13.53,0l3.84,3.36c.1.08.13.22.08.33-.06.11-.19.18-.34.18h-1.77l3.3,2.89c.1.08.13.22.07.33-.06.11-.19.18-.34.18h-1.93l3.3,2.89c.11.09.13.22.08.33Z" />
        <path class="cls-8"
            d="M1363.09,555.72h-5.56q-.57,0-.57.57v2.19c0,2.21,1.08,3.49,2.35,4.43.21.16.44.26.44.52v4.02c0,.42-.15.57-.57.57h-1.34q-.52,0-.52.54t.52.56h4.94q.52,0,.52-.56,0-.54-.52-.54h-1.35c-.42,0-.57-.15-.57-.57v-4.02c0-.27.21-.39.44-.52,1.35-.81,2.35-2.23,2.35-4.43v-2.19q0-.57-.57-.57ZM1368.81,555.72q-.45,0-.45.64v3.38c0,.71-.89.71-.89,0v-3.38q0-.64-.46-.64-.46,0-.46.64v3.38c0,.71-.9.71-.9,0v-3.38q0-.64-.42-.64-.46,0-.46.64v3.65c0,1.76,1.68,2.11,1.68,3.25,0,1.92-.56,2.93-.56,4.52,0,.89.56,1.34,1.13,1.34.54,0,1.09-.45,1.09-1.34.01-1.58-.55-2.6-.54-4.52,0-1.14,1.65-1.48,1.65-3.25v-3.65q0-.64-.42-.64Z" />
        <circle class="cls-20" cx="1047.59" cy="511.03" r="22.68" />
        <path class="cls-25"
            d="M1047.59,527.9c-9.3,0-16.87-7.57-16.87-16.87s7.57-16.87,16.87-16.87,16.87,7.57,16.87,16.87-7.57,16.87-16.87,16.87ZM1047.59,495.27c-8.69,0-15.76,7.07-15.76,15.76s7.07,15.76,15.76,15.76,15.76-7.07,15.76-15.76-7.07-15.76-15.76-15.76Z" />
        <path class="cls-25"
            d="M1047.38,501.43c.75,0,1.12.46,1.12.46.29.28.46.68.46,1.12s-.18.83-.46,1.12c-.29.28-.68.46-1.12.46s-.83-.18-1.12-.46c-.28-.28-.46-.68-.46-1.12s.18-.83.46-1.12c.28-.28.68-.46,1.12-.46M1047.38,505.35c.06,0,.11.02.16.05.05.03.08.08.1.13l1.37,3.85c.09.24.21.46.36.65.34.43.81.74,1.33.9.25.08.52.12.78.12.28,0,.56-.04.82-.14.22-.08.44-.19.63-.35l2.32-1.8c.05-.04.11-.06.17-.06,0,0,0,0,0,0,.05,0,.11.02.15.05.05.03.09.07.11.12s.03.11.01.18l-1.39,5.93h0s-13.86,0-13.86,0l-1.39-5.94c-.01-.06,0-.12.02-.17.02-.05.06-.09.11-.12.05-.03.1-.05.16-.05.05,0,.11.02.17.06l2.32,1.8c.2.15.41.27.63.35.26.09.54.14.82.14.26,0,.53-.04.78-.12.52-.16,1-.47,1.33-.9.15-.19.27-.41.36-.65l1.37-3.85c.02-.06.06-.11.1-.14.05-.03.1-.04.16-.04M1038.11,505.61c.37,0,.7.15.94.39.25.26.39.58.39.95s-.15.7-.39.95c-.24.24-.58.39-.95.39s-.7-.15-.95-.39c-.24-.24-.39-.58-.39-.95s.15-.7.39-.95c.24-.24.58-.39.95-.39M1056.64,505.61c.37,0,.71.15.95.39h0c.24.24.39.58.39.95s-.15.71-.39.95c-.24.24-.58.39-.95.39s-.7-.15-.95-.39c-.24-.24-.39-.58-.39-.95s.15-.7.39-.95c.24-.24.58-.39.95-.39M1039.06,506h0s0,0,0,0c0,0,0,0,0,0M1054.49,516.58c.18,0,.35.07.47.2.12.12.2.29.2.47v.81c0,.18-.07.35-.2.47-.12.12-.29.2-.47.2h-14.22c-.18,0-.35-.07-.47-.2-.12-.12-.2-.29-.2-.47v-.81c0-.18.07-.35.2-.47.12-.12.29-.2.47-.2h14.22M1047.38,500.28c-.73,0-1.42.28-1.93.8-.51.51-.8,1.2-.8,1.93s.28,1.42.8,1.93c.16.16.33.29.51.4l-1.3,3.66c-.04.12-.1.23-.18.33-.18.23-.45.41-.75.51-.15.04-.3.07-.45.07s-.3-.02-.44-.07c-.11-.04-.22-.1-.31-.17l-2.16-1.67c.15-.32.23-.68.23-1.04,0-.65-.25-1.27-.72-1.75,0,0,0,0-.01-.01h0s0,0,0,0c-.48-.47-1.1-.73-1.76-.73s-1.29.26-1.76.73c-.47.47-.73,1.1-.73,1.76s.26,1.29.73,1.76c.44.44,1,.69,1.61.73l1.36,5.82.09.39c-.16.08-.3.19-.43.32-.34.34-.53.8-.53,1.28v.81c0,.48.19.94.53,1.28.34.34.8.53,1.28.53h14.22c.48,0,.94-.19,1.28-.53.34-.34.53-.8.53-1.28v-.81c0-.48-.19-.94-.53-1.28-.13-.13-.28-.24-.43-.32l.09-.39,1.36-5.82c.61-.04,1.17-.29,1.61-.72.47-.47.73-1.1.73-1.76s-.26-1.29-.73-1.76c-.47-.47-1.1-.73-1.76-.73s-1.29.26-1.76.73c-.47.47-.73,1.09-.73,1.76,0,.37.08.72.23,1.04l-2.15,1.67c-.09.07-.2.13-.31.17-.14.05-.28.07-.44.07s-.3-.02-.45-.07c-.31-.09-.57-.27-.75-.5-.08-.1-.14-.21-.18-.33l-1.3-3.65c.18-.11.36-.25.51-.4.52-.52.8-1.2.8-1.93s-.27-1.38-.76-1.89c-.35-.4-1.05-.84-1.97-.84h0Z" />
    </g>
    <g id="DYT">
        <polygon class="cls-37"
            points="1679.56 480.46 1633.12 526.46 1616.59 509.93 1485.48 509.93 1429.77 566.45 1386.83 523.51 1460 450.31 1649.41 450.31 1679.56 480.46" />
        <path class="cls-8"
            d="M1518.15,493.83l-6.93-4.01c-.17-.1-.38-.1-.53,0l-6.95,4.03c-.12.07-.2.19-.2.32v.6c.02.14.14.26.29.26h14.26c.15,0,.27-.12.27-.27v-.6c0-.14-.07-.26-.2-.32ZM1510.95,493.42c-.43,0-.79-.34-.79-.79s.36-.79.79-.79.79.36.79.79-.36.79-.79.79Z" />
        <path class="cls-8"
            d="M1513,505.96h5.41c.17,0,.31-.14.31-.31v-.72c.02-.17-.12-.31-.29-.31h-.58v-5.67c0-.17-.14-.31-.31-.31h-1.06v-2.87h-1.47v2.87h-1.72v-2.87h-1.47v2.87h-1.74v-2.87h-1.47v2.87h-1.72v-2.87h-1.47v2.87h-1.06c-.17,0-.31.14-.31.31v5.69h-.58c-.17,0-.31.14-.31.31v.72c0,.17.14.31.31.31h5.41c.1,0,.19-.09.19-.19v-3.35c0-1.02.8-1.91,1.83-1.93,1.04-.02,1.91.82,1.91,1.86v3.4c0,.1.09.19.19.19ZM1514.48,501.37c0-.44.32-.84.77-.89.51-.05.94.34.94.85v1.49c-.02.12-.1.2-.2.2h-1.3c-.1,0-.2-.09-.2-.2v-1.45ZM1507.43,502.82c-.02.12-.1.2-.2.2h-1.3c-.1,0-.2-.09-.2-.2v-1.45c0-.44.32-.84.77-.89.51-.05.94.34.94.85v1.49Z" />
        <rect class="cls-36" x="1565.4" y="450.34" width="43.96" height="21.52" />
        <path class="cls-8"
            d="M1593.91,463.71c-.06.11-.19.18-.34.18h-4.74v3.95c0,.16-.17.3-.37.3h-2.18c-.21,0-.37-.14-.37-.3v-3.95h-4.74c-.15,0-.28-.08-.34-.18s-.03-.23.07-.33l3.3-2.89h-1.93c-.14,0-.28-.08-.33-.18-.06-.11-.03-.24.07-.33l3.3-2.89h-1.78c-.14,0-.28-.07-.33-.18-.06-.11-.03-.24.07-.33l3.84-3.36c.13-.13.39-.13.53,0l3.84,3.36c.1.08.13.22.08.33-.06.11-.19.18-.34.18h-1.77l3.3,2.89c.1.08.13.22.07.33-.06.11-.19.18-.34.18h-1.93l3.3,2.89c.11.09.13.22.08.33Z" />
        <rect class="cls-21" x="960.05" y="538.25" width="184.09" height="27.47" />
        <path class="cls-8"
            d="M1522.95,505.38c.47.47,1.05.71,1.72.71h12.13c.67,0,1.24-.24,1.72-.71.47-.47.71-1.05.71-1.72h-16.98c0,.67.24,1.24.71,1.72Z" />
        <path class="cls-8"
            d="M1526.79,502.45h6.67c.58,0,1.08-.21,1.5-.63.42-.42.63-.92.63-1.5v-.3h.61c1,0,1.86-.36,2.57-1.07.71-.71,1.07-1.57,1.07-2.57s-.36-1.86-1.07-2.57c-.71-.71-1.57-1.07-2.57-1.07h-10.92c-.16,0-.31.06-.43.18-.12.12-.18.26-.18.43v6.97c0,.58.21,1.08.63,1.5s.92.63,1.5.63ZM1535.59,494.57h.61c.51,0,.94.18,1.29.53.35.35.53.78.53,1.29s-.18.93-.53,1.29c-.35.35-.78.53-1.29.53h-.61v-3.64Z" />
        <text class="cls-2" transform="translate(963.7 559.27)">
            <tspan x="0" y="0">CINCINN</tspan>
            <tspan class="cls-38" x="124.06" y="0">A</tspan>
            <tspan x="142.73" y="0">TI</tspan>
        </text>
        <circle class="cls-20" cx="1047.59" cy="511.03" r="22.68" />
        <path class="cls-25"
            d="M1047.59,527.9c-9.3,0-16.87-7.57-16.87-16.87s7.57-16.87,16.87-16.87,16.87,7.57,16.87,16.87-7.57,16.87-16.87,16.87ZM1047.59,495.27c-8.69,0-15.76,7.07-15.76,15.76s7.07,15.76,15.76,15.76,15.76-7.07,15.76-15.76-7.07-15.76-15.76-15.76Z" />
        <path class="cls-25"
            d="M1047.38,501.43c.75,0,1.12.46,1.12.46.29.28.46.68.46,1.12s-.18.83-.46,1.12c-.29.28-.68.46-1.12.46s-.83-.18-1.12-.46c-.28-.28-.46-.68-.46-1.12s.18-.83.46-1.12c.28-.28.68-.46,1.12-.46M1047.38,505.35c.06,0,.11.02.16.05.05.03.08.08.1.13l1.37,3.85c.09.24.21.46.36.65.34.43.81.74,1.33.9.25.08.52.12.78.12.28,0,.56-.04.82-.14.22-.08.44-.19.63-.35l2.32-1.8c.05-.04.11-.06.17-.06,0,0,0,0,0,0,.05,0,.11.02.15.05.05.03.09.07.11.12s.03.11.01.18l-1.39,5.93h0s-13.86,0-13.86,0l-1.39-5.94c-.01-.06,0-.12.02-.17.02-.05.06-.09.11-.12.05-.03.1-.05.16-.05.05,0,.11.02.17.06l2.32,1.8c.2.15.41.27.63.35.26.09.54.14.82.14.26,0,.53-.04.78-.12.52-.16,1-.47,1.33-.9.15-.19.27-.41.36-.65l1.37-3.85c.02-.06.06-.11.1-.14.05-.03.1-.04.16-.04M1038.11,505.61c.37,0,.7.15.94.39.25.26.39.58.39.95s-.15.7-.39.95c-.24.24-.58.39-.95.39s-.7-.15-.95-.39c-.24-.24-.39-.58-.39-.95s.15-.7.39-.95c.24-.24.58-.39.95-.39M1056.64,505.61c.37,0,.71.15.95.39h0c.24.24.39.58.39.95s-.15.71-.39.95c-.24.24-.58.39-.95.39s-.7-.15-.95-.39c-.24-.24-.39-.58-.39-.95s.15-.7.39-.95c.24-.24.58-.39.95-.39M1039.06,506h0s0,0,0,0c0,0,0,0,0,0M1054.49,516.58c.18,0,.35.07.47.2.12.12.2.29.2.47v.81c0,.18-.07.35-.2.47-.12.12-.29.2-.47.2h-14.22c-.18,0-.35-.07-.47-.2-.12-.12-.2-.29-.2-.47v-.81c0-.18.07-.35.2-.47.12-.12.29-.2.47-.2h14.22M1047.38,500.28c-.73,0-1.42.28-1.93.8-.51.51-.8,1.2-.8,1.93s.28,1.42.8,1.93c.16.16.33.29.51.4l-1.3,3.66c-.04.12-.1.23-.18.33-.18.23-.45.41-.75.51-.15.04-.3.07-.45.07s-.3-.02-.44-.07c-.11-.04-.22-.1-.31-.17l-2.16-1.67c.15-.32.23-.68.23-1.04,0-.65-.25-1.27-.72-1.75,0,0,0,0-.01-.01h0s0,0,0,0c-.48-.47-1.1-.73-1.76-.73s-1.29.26-1.76.73c-.47.47-.73,1.1-.73,1.76s.26,1.29.73,1.76c.44.44,1,.69,1.61.73l1.36,5.82.09.39c-.16.08-.3.19-.43.32-.34.34-.53.8-.53,1.28v.81c0,.48.19.94.53,1.28.34.34.8.53,1.28.53h14.22c.48,0,.94-.19,1.28-.53.34-.34.53-.8.53-1.28v-.81c0-.48-.19-.94-.53-1.28-.13-.13-.28-.24-.43-.32l.09-.39,1.36-5.82c.61-.04,1.17-.29,1.61-.72.47-.47.73-1.1.73-1.76s-.26-1.29-.73-1.76c-.47-.47-1.1-.73-1.76-.73s-1.29.26-1.76.73c-.47.47-.73,1.09-.73,1.76,0,.37.08.72.23,1.04l-2.15,1.67c-.09.07-.2.13-.31.17-.14.05-.28.07-.44.07s-.3-.02-.45-.07c-.31-.09-.57-.27-.75-.5-.08-.1-.14-.21-.18-.33l-1.3-3.65c.18-.11.36-.25.51-.4.52-.52.8-1.2.8-1.93s-.27-1.38-.76-1.89c-.35-.4-1.05-.84-1.97-.84h0Z" />
        <path class="cls-8"
            d="M1474.4,491.34h-6.71q-.69,0-.69.69v2.64c0,2.67,1.31,4.21,2.84,5.35.26.19.53.31.53.63v4.85c0,.51-.18.69-.69.69h-1.62q-.63,0-.63.65t.63.67h5.96q.63,0,.63-.67,0-.65-.63-.65h-1.63c-.51,0-.69-.18-.69-.69v-4.85c0-.32.26-.47.53-.63,1.63-.98,2.84-2.69,2.84-5.35v-2.64q0-.69-.69-.69ZM1481.3,491.34q-.54,0-.54.77v4.08c0,.86-1.08.86-1.08,0v-4.08q0-.77-.55-.77-.55,0-.55.77v4.08c0,.86-1.09.86-1.09,0v-4.08q0-.77-.51-.77-.55,0-.55.77v4.4c0,2.13,2.03,2.54,2.03,3.92,0,2.32-.67,3.54-.67,5.45,0,1.08.67,1.62,1.36,1.62.65,0,1.32-.54,1.32-1.62.01-1.91-.66-3.14-.65-5.45,0-1.37,1.99-1.79,1.99-3.92v-4.4q0-.77-.51-.77Z" />
        <path class="cls-8"
            d="M1456.25,512.35h-6.71q-.69,0-.69.69v2.64c0,2.67,1.31,4.21,2.84,5.35.26.19.53.31.53.63v4.85c0,.51-.18.69-.69.69h-1.62q-.63,0-.63.65t.63.67h5.96q.63,0,.63-.67,0-.65-.63-.65h-1.63c-.51,0-.69-.18-.69-.69v-4.85c0-.32.26-.47.53-.63,1.63-.98,2.84-2.69,2.84-5.35v-2.64q0-.69-.69-.69ZM1463.14,512.35q-.54,0-.54.77v4.08c0,.86-1.08.86-1.08,0v-4.08q0-.77-.55-.77-.55,0-.55.77v4.08c0,.86-1.09.86-1.09,0v-4.08q0-.77-.51-.77-.55,0-.55.77v4.4c0,2.13,2.03,2.54,2.03,3.92,0,2.32-.67,3.54-.67,5.45,0,1.08.67,1.62,1.36,1.62.65,0,1.32-.54,1.32-1.62.01-1.91-.66-3.14-.65-5.45,0-1.37,1.99-1.79,1.99-3.92v-4.4q0-.77-.51-.77Z" />
    </g>
    <g id="FTM">
        <path class="cls-18"
            d="M1950.76,1084.34l-43.87,43.87-144.12-145.43v-320.93c0-3.68-1.46-7.2-4.06-9.8l-125.98-125.98,46.08-45.93,148.81,148.81.61,323.7c0,5.1,2.03,9.99,5.62,13.62l13.63,13.77,103.29,104.31Z" />
        <polygon class="cls-18"
            points="1951.27 1083.83 1950.76 1084.34 1847.47 980.03 1951.27 1083.83" />
        <rect class="cls-28" x="1790.68" y="987.99" width="21.22" height="21.52"
            transform="translate(1233.81 -981.18) rotate(45)" />
        <path class="cls-8"
            d="M1825.81,1013.6l-6.93-4.01c-.17-.1-.38-.1-.53,0l-6.95,4.03c-.12.07-.2.19-.2.32v.6c.02.14.14.26.29.26h14.26c.15,0,.27-.12.27-.27v-.6c0-.14-.07-.26-.2-.32ZM1818.61,1013.19c-.43,0-.79-.34-.79-.79s.36-.79.79-.79.79.36.79.79-.36.79-.79.79Z" />
        <path class="cls-8"
            d="M1820.65,1025.74h5.41c.17,0,.31-.14.31-.31v-.72c.02-.17-.12-.31-.29-.31h-.58v-5.67c0-.17-.14-.31-.31-.31h-1.06v-2.87h-1.47v2.87h-1.72v-2.87h-1.47v2.87h-1.74v-2.87h-1.47v2.87h-1.72v-2.87h-1.47v2.87h-1.06c-.17,0-.31.14-.31.31v5.69h-.58c-.17,0-.31.14-.31.31v.72c0,.17.14.31.31.31h5.41c.1,0,.19-.09.19-.19v-3.35c0-1.02.8-1.91,1.83-1.93,1.04-.02,1.91.82,1.91,1.86v3.4c0,.1.09.19.19.19ZM1822.14,1021.15c0-.44.32-.84.77-.89.51-.05.94.34.94.85v1.49c-.02.12-.1.2-.2.2h-1.3c-.1,0-.2-.09-.2-.2v-1.45ZM1815.09,1022.6c-.02.12-.1.2-.2.2h-1.3c-.1,0-.2-.09-.2-.2v-1.45c0-.44.32-.84.77-.89.51-.05.94.34.94.85v1.49Z" />
        <rect class="cls-21" x="960.05" y="538.25" width="184.09" height="27.47" />
        <text class="cls-2" transform="translate(963.7 559.27)">
            <tspan x="0" y="0">CINCINN</tspan>
            <tspan class="cls-38" x="124.06" y="0">A</tspan>
            <tspan x="142.73" y="0">TI</tspan>
        </text>
        <circle class="cls-20" cx="1047.59" cy="511.03" r="22.68" />
        <path class="cls-25"
            d="M1047.59,527.9c-9.3,0-16.87-7.57-16.87-16.87s7.57-16.87,16.87-16.87,16.87,7.57,16.87,16.87-7.57,16.87-16.87,16.87ZM1047.59,495.27c-8.69,0-15.76,7.07-15.76,15.76s7.07,15.76,15.76,15.76,15.76-7.07,15.76-15.76-7.07-15.76-15.76-15.76Z" />
        <path class="cls-25"
            d="M1047.38,501.43c.75,0,1.12.46,1.12.46.29.28.46.68.46,1.12s-.18.83-.46,1.12c-.29.28-.68.46-1.12.46s-.83-.18-1.12-.46c-.28-.28-.46-.68-.46-1.12s.18-.83.46-1.12c.28-.28.68-.46,1.12-.46M1047.38,505.35c.06,0,.11.02.16.05.05.03.08.08.1.13l1.37,3.85c.09.24.21.46.36.65.34.43.81.74,1.33.9.25.08.52.12.78.12.28,0,.56-.04.82-.14.22-.08.44-.19.63-.35l2.32-1.8c.05-.04.11-.06.17-.06,0,0,0,0,0,0,.05,0,.11.02.15.05.05.03.09.07.11.12s.03.11.01.18l-1.39,5.93h0s-13.86,0-13.86,0l-1.39-5.94c-.01-.06,0-.12.02-.17.02-.05.06-.09.11-.12.05-.03.1-.05.16-.05.05,0,.11.02.17.06l2.32,1.8c.2.15.41.27.63.35.26.09.54.14.82.14.26,0,.53-.04.78-.12.52-.16,1-.47,1.33-.9.15-.19.27-.41.36-.65l1.37-3.85c.02-.06.06-.11.1-.14.05-.03.1-.04.16-.04M1038.11,505.61c.37,0,.7.15.94.39.25.26.39.58.39.95s-.15.7-.39.95c-.24.24-.58.39-.95.39s-.7-.15-.95-.39c-.24-.24-.39-.58-.39-.95s.15-.7.39-.95c.24-.24.58-.39.95-.39M1056.64,505.61c.37,0,.71.15.95.39h0c.24.24.39.58.39.95s-.15.71-.39.95c-.24.24-.58.39-.95.39s-.7-.15-.95-.39c-.24-.24-.39-.58-.39-.95s.15-.7.39-.95c.24-.24.58-.39.95-.39M1039.06,506h0s0,0,0,0c0,0,0,0,0,0M1054.49,516.58c.18,0,.35.07.47.2.12.12.2.29.2.47v.81c0,.18-.07.35-.2.47-.12.12-.29.2-.47.2h-14.22c-.18,0-.35-.07-.47-.2-.12-.12-.2-.29-.2-.47v-.81c0-.18.07-.35.2-.47.12-.12.29-.2.47-.2h14.22M1047.38,500.28c-.73,0-1.42.28-1.93.8-.51.51-.8,1.2-.8,1.93s.28,1.42.8,1.93c.16.16.33.29.51.4l-1.3,3.66c-.04.12-.1.23-.18.33-.18.23-.45.41-.75.51-.15.04-.3.07-.45.07s-.3-.02-.44-.07c-.11-.04-.22-.1-.31-.17l-2.16-1.67c.15-.32.23-.68.23-1.04,0-.65-.25-1.27-.72-1.75,0,0,0,0-.01-.01h0s0,0,0,0c-.48-.47-1.1-.73-1.76-.73s-1.29.26-1.76.73c-.47.47-.73,1.1-.73,1.76s.26,1.29.73,1.76c.44.44,1,.69,1.61.73l1.36,5.82.09.39c-.16.08-.3.19-.43.32-.34.34-.53.8-.53,1.28v.81c0,.48.19.94.53,1.28.34.34.8.53,1.28.53h14.22c.48,0,.94-.19,1.28-.53.34-.34.53-.8.53-1.28v-.81c0-.48-.19-.94-.53-1.28-.13-.13-.28-.24-.43-.32l.09-.39,1.36-5.82c.61-.04,1.17-.29,1.61-.72.47-.47.73-1.1.73-1.76s-.26-1.29-.73-1.76c-.47-.47-1.1-.73-1.76-.73s-1.29.26-1.76.73c-.47.47-.73,1.09-.73,1.76,0,.37.08.72.23,1.04l-2.15,1.67c-.09.07-.2.13-.31.17-.14.05-.28.07-.44.07s-.3-.02-.45-.07c-.31-.09-.57-.27-.75-.5-.08-.1-.14-.21-.18-.33l-1.3-3.65c.18-.11.36-.25.51-.4.52-.52.8-1.2.8-1.93s-.27-1.38-.76-1.89c-.35-.4-1.05-.84-1.97-.84h0Z" />
        <line class="cls-11" x1="1914.77" y1="1020.1" x2="1843.83" y2="1091.04" />
        <path class="cls-8"
            d="M1807.82,1001.36c-.06.11-.19.18-.34.18h-4.74v3.95c0,.16-.17.3-.37.3h-2.18c-.21,0-.37-.14-.37-.3v-3.95h-4.74c-.15,0-.28-.08-.34-.18s-.03-.23.07-.33l3.3-2.89h-1.93c-.14,0-.28-.08-.33-.18-.06-.11-.03-.24.07-.33l3.3-2.89h-1.78c-.14,0-.28-.07-.33-.18-.06-.11-.03-.24.07-.33l3.84-3.36c.13-.13.39-.13.53,0l3.84,3.36c.1.08.13.22.08.33-.06.11-.19.18-.34.18h-1.77l3.3,2.89c.1.08.13.22.07.33-.06.11-.19.18-.34.18h-1.93l3.3,2.89c.11.09.13.22.08.33Z" />
        <path class="cls-8"
            d="M1827.09,1041.62c.47.47,1.05.71,1.72.71h12.13c.67,0,1.24-.24,1.72-.71.47-.47.71-1.05.71-1.72h-16.98c0,.67.24,1.24.71,1.72Z" />
        <path class="cls-8"
            d="M1830.92,1038.69h6.67c.58,0,1.08-.21,1.5-.63.42-.42.63-.92.63-1.5v-.3h.61c1,0,1.86-.36,2.57-1.07.71-.71,1.07-1.57,1.07-2.57s-.36-1.86-1.07-2.57c-.71-.71-1.57-1.07-2.57-1.07h-10.92c-.16,0-.31.06-.43.18-.12.12-.18.26-.18.43v6.97c0,.58.21,1.08.63,1.5s.92.63,1.5.63ZM1839.72,1030.8h.61c.51,0,.94.18,1.29.53.35.35.53.78.53,1.29s-.18.93-.53,1.29c-.35.35-.78.53-1.29.53h-.61v-3.64Z" />
        <path class="cls-8"
            d="M1854.67,1044.06h-6.71q-.69,0-.69.69v2.64c0,2.67,1.31,4.21,2.84,5.35.26.19.53.31.53.63v4.85c0,.51-.18.69-.69.69h-1.62q-.63,0-.63.65t.63.67h5.96q.63,0,.63-.67,0-.65-.63-.65h-1.63c-.51,0-.69-.18-.69-.69v-4.85c0-.32.26-.47.53-.63,1.63-.98,2.84-2.69,2.84-5.35v-2.64q0-.69-.69-.69ZM1861.56,1044.06q-.54,0-.54.77v4.08c0,.86-1.08.86-1.08,0v-4.08q0-.77-.55-.77-.55,0-.55.77v4.08c0,.86-1.09.86-1.09,0v-4.08q0-.77-.51-.77-.55,0-.55.77v4.4c0,2.13,2.03,2.54,2.03,3.92,0,2.32-.67,3.54-.67,5.45,0,1.08.67,1.62,1.36,1.62.65,0,1.32-.54,1.32-1.62.01-1.91-.66-3.14-.65-5.45,0-1.37,1.99-1.79,1.99-3.92v-4.4q0-.77-.51-.77Z" />
        <path class="cls-8"
            d="M1780.94,732.12h-6.71q-.69,0-.69.69v2.64c0,2.67,1.31,4.21,2.84,5.35.26.19.53.31.53.63v4.85c0,.51-.18.69-.69.69h-1.62q-.63,0-.63.65t.63.67h5.96q.63,0,.63-.67,0-.65-.63-.65h-1.63c-.51,0-.69-.18-.69-.69v-4.85c0-.32.26-.47.53-.63,1.63-.98,2.84-2.69,2.84-5.35v-2.64q0-.69-.69-.69ZM1787.84,732.12q-.54,0-.54.77v4.08c0,.86-1.08.86-1.08,0v-4.08q0-.77-.55-.77-.55,0-.55.77v4.08c0,.86-1.09.86-1.09,0v-4.08q0-.77-.51-.77-.55,0-.55.77v4.4c0,2.13,2.03,2.54,2.03,3.92,0,2.32-.67,3.54-.67,5.45,0,1.08.67,1.62,1.36,1.62.65,0,1.32-.54,1.32-1.62.01-1.91-.66-3.14-.65-5.45,0-1.37,1.99-1.79,1.99-3.92v-4.4q0-.77-.51-.77Z" />
        <path class="cls-8"
            d="M1780.94,675.93h-6.71q-.69,0-.69.69v2.64c0,2.67,1.31,4.21,2.84,5.35.26.19.53.31.53.63v4.85c0,.51-.18.69-.69.69h-1.62q-.63,0-.63.65t.63.67h5.96q.63,0,.63-.67,0-.65-.63-.65h-1.63c-.51,0-.69-.18-.69-.69v-4.85c0-.32.26-.47.53-.63,1.63-.98,2.84-2.69,2.84-5.35v-2.64q0-.69-.69-.69ZM1787.84,675.93q-.54,0-.54.77v4.08c0,.86-1.08.86-1.08,0v-4.08q0-.77-.55-.77-.55,0-.55.77v4.08c0,.86-1.09.86-1.09,0v-4.08q0-.77-.51-.77-.55,0-.55.77v4.4c0,2.13,2.03,2.54,2.03,3.92,0,2.32-.67,3.54-.67,5.45,0,1.08.67,1.62,1.36,1.62.65,0,1.32-.54,1.32-1.62.01-1.91-.66-3.14-.65-5.45,0-1.37,1.99-1.79,1.99-3.92v-4.4q0-.77-.51-.77Z" />
        <rect class="cls-28" x="1770.02" y="702.15" width="21.22" height="21.52" />
        <path class="cls-8"
            d="M1787.17,715.52c-.06.11-.19.18-.34.18h-4.74v3.95c0,.16-.17.3-.37.3h-2.18c-.21,0-.37-.14-.37-.3v-3.95h-4.74c-.15,0-.28-.08-.34-.18s-.03-.23.07-.33l3.3-2.89h-1.93c-.14,0-.28-.08-.33-.18-.06-.11-.03-.24.07-.33l3.3-2.89h-1.78c-.14,0-.28-.07-.33-.18-.06-.11-.03-.24.07-.33l3.84-3.36c.13-.13.39-.13.53,0l3.84,3.36c.1.08.13.22.08.33-.06.11-.19.18-.34.18h-1.77l3.3,2.89c.1.08.13.22.07.33-.06.11-.19.18-.34.18h-1.93l3.3,2.89c.11.09.13.22.08.33Z" />
        <rect class="cls-28" x="1715.89" y="583.74" width="21.22" height="21.52"
            transform="translate(926.06 -1046.7) rotate(45)" />
        <path class="cls-8"
            d="M1733.36,597.25c-.06.11-.19.18-.34.18h-4.74s0,3.95,0,3.95c0,.16-.17.3-.37.3h-2.18c-.21,0-.37-.14-.37-.3v-3.95s-4.74,0-4.74,0c-.15,0-.28-.08-.34-.18s-.03-.23.07-.33l3.3-2.89h-1.93c-.14,0-.28-.08-.33-.18-.06-.11-.03-.24.07-.33l3.3-2.89h-1.78c-.14,0-.28-.07-.33-.18-.06-.11-.03-.24.07-.33l3.84-3.36c.13-.13.39-.13.53,0l3.84,3.36c.1.08.13.22.08.33-.06.11-.19.18-.34.18h-1.77s3.3,2.89,3.3,2.89c.1.08.13.22.07.33-.06.11-.19.18-.34.18h-1.93s3.3,2.89,3.3,2.89c.11.09.13.22.08.33Z" />
    </g>
    <g id="SGV">
        <polygon class="cls-56"
            points="2384.56 1105.78 2384.56 1167.54 1945.87 1167.54 1906.89 1128.21 1950.76 1084.34 1971.99 1105.78 2384.56 1105.78" />
        <polygon class="cls-56"
            points="1971.99 1105.78 1950.76 1084.34 1951.53 1083.57 1973.75 1105.78 1971.99 1105.78" />
        <rect class="cls-1" x="2080.31" y="1134.79" width="24.6" height="25.99"
            transform="translate(944.83 3240.4) rotate(-90)" />
        <path class="cls-8"
            d="M2099.15,1151.11c-.06.11-.19.18-.34.18h-4.74v3.95c0,.16-.17.3-.37.3h-2.18c-.21,0-.37-.14-.37-.3v-3.95h-4.74c-.15,0-.28-.08-.34-.18s-.03-.23.07-.33l3.3-2.89h-1.93c-.14,0-.28-.08-.33-.18-.06-.11-.03-.24.07-.33l3.3-2.89h-1.78c-.14,0-.28-.07-.33-.18-.06-.11-.03-.24.07-.33l3.84-3.36c.13-.13.39-.13.53,0l3.84,3.36c.1.08.13.22.08.33-.06.11-.19.18-.34.18h-1.77l3.3,2.89c.1.08.13.22.07.33-.06.11-.19.18-.34.18h-1.93l3.3,2.89c.11.09.13.22.08.33Z" />
        <path class="cls-8"
            d="M2114.46,1110.54h-5.56q-.57,0-.57.57v2.19c0,2.21,1.08,3.49,2.35,4.43.21.16.44.26.44.52v4.02c0,.42-.15.57-.57.57h-1.34q-.52,0-.52.54t.52.56h4.94q.52,0,.52-.56,0-.54-.52-.54h-1.35c-.42,0-.57-.15-.57-.57v-4.02c0-.27.21-.39.44-.52,1.35-.81,2.35-2.23,2.35-4.43v-2.19q0-.57-.57-.57ZM2120.17,1110.54q-.45,0-.45.64v3.38c0,.71-.89.71-.89,0v-3.38q0-.64-.46-.64-.46,0-.46.64v3.38c0,.71-.9.71-.9,0v-3.38q0-.64-.42-.64-.46,0-.46.64v3.65c0,1.76,1.68,2.11,1.68,3.25,0,1.92-.56,2.93-.56,4.52,0,.89.56,1.34,1.13,1.34.54,0,1.09-.45,1.09-1.34.01-1.58-.55-2.6-.54-4.52,0-1.14,1.65-1.48,1.65-3.25v-3.65q0-.64-.42-.64Z" />
        <path class="cls-8"
            d="M2131.59,1140.73h-5.56q-.57,0-.57.57v2.19c0,2.21,1.08,3.49,2.35,4.43.21.16.44.26.44.52v4.02c0,.42-.15.57-.57.57h-1.34q-.52,0-.52.54t.52.56h4.94q.52,0,.52-.56,0-.54-.52-.54h-1.35c-.42,0-.57-.15-.57-.57v-4.02c0-.27.21-.39.44-.52,1.35-.81,2.35-2.23,2.35-4.43v-2.19q0-.57-.57-.57ZM2137.3,1140.73q-.45,0-.45.64v3.38c0,.71-.89.71-.89,0v-3.38q0-.64-.46-.64-.46,0-.46.64v3.38c0,.71-.9.71-.9,0v-3.38q0-.64-.42-.64-.46,0-.46.64v3.65c0,1.76,1.68,2.11,1.68,3.25,0,1.92-.56,2.93-.56,4.52,0,.89.56,1.34,1.13,1.34.54,0,1.09-.45,1.09-1.34.01-1.58-.55-2.6-.54-4.52,0-1.14,1.65-1.48,1.65-3.25v-3.65q0-.64-.42-.64Z" />
        <rect class="cls-21" x="960.05" y="538.25" width="184.09" height="27.47" />
        <text class="cls-2" transform="translate(963.7 559.27)">
            <tspan x="0" y="0">CINCINN</tspan>
            <tspan class="cls-38" x="124.06" y="0">A</tspan>
            <tspan x="142.73" y="0">TI</tspan>
        </text>
        <circle class="cls-20" cx="1047.59" cy="511.03" r="22.68" />
        <path class="cls-25"
            d="M1047.59,527.9c-9.3,0-16.87-7.57-16.87-16.87s7.57-16.87,16.87-16.87,16.87,7.57,16.87,16.87-7.57,16.87-16.87,16.87ZM1047.59,495.27c-8.69,0-15.76,7.07-15.76,15.76s7.07,15.76,15.76,15.76,15.76-7.07,15.76-15.76-7.07-15.76-15.76-15.76Z" />
        <path class="cls-25"
            d="M1047.38,501.43c.75,0,1.12.46,1.12.46.29.28.46.68.46,1.12s-.18.83-.46,1.12c-.29.28-.68.46-1.12.46s-.83-.18-1.12-.46c-.28-.28-.46-.68-.46-1.12s.18-.83.46-1.12c.28-.28.68-.46,1.12-.46M1047.38,505.35c.06,0,.11.02.16.05.05.03.08.08.1.13l1.37,3.85c.09.24.21.46.36.65.34.43.81.74,1.33.9.25.08.52.12.78.12.28,0,.56-.04.82-.14.22-.08.44-.19.63-.35l2.32-1.8c.05-.04.11-.06.17-.06,0,0,0,0,0,0,.05,0,.11.02.15.05.05.03.09.07.11.12s.03.11.01.18l-1.39,5.93h0s-13.86,0-13.86,0l-1.39-5.94c-.01-.06,0-.12.02-.17.02-.05.06-.09.11-.12.05-.03.1-.05.16-.05.05,0,.11.02.17.06l2.32,1.8c.2.15.41.27.63.35.26.09.54.14.82.14.26,0,.53-.04.78-.12.52-.16,1-.47,1.33-.9.15-.19.27-.41.36-.65l1.37-3.85c.02-.06.06-.11.1-.14.05-.03.1-.04.16-.04M1038.11,505.61c.37,0,.7.15.94.39.25.26.39.58.39.95s-.15.7-.39.95c-.24.24-.58.39-.95.39s-.7-.15-.95-.39c-.24-.24-.39-.58-.39-.95s.15-.7.39-.95c.24-.24.58-.39.95-.39M1056.64,505.61c.37,0,.71.15.95.39h0c.24.24.39.58.39.95s-.15.71-.39.95c-.24.24-.58.39-.95.39s-.7-.15-.95-.39c-.24-.24-.39-.58-.39-.95s.15-.7.39-.95c.24-.24.58-.39.95-.39M1039.06,506h0s0,0,0,0c0,0,0,0,0,0M1054.49,516.58c.18,0,.35.07.47.2.12.12.2.29.2.47v.81c0,.18-.07.35-.2.47-.12.12-.29.2-.47.2h-14.22c-.18,0-.35-.07-.47-.2-.12-.12-.2-.29-.2-.47v-.81c0-.18.07-.35.2-.47.12-.12.29-.2.47-.2h14.22M1047.38,500.28c-.73,0-1.42.28-1.93.8-.51.51-.8,1.2-.8,1.93s.28,1.42.8,1.93c.16.16.33.29.51.4l-1.3,3.66c-.04.12-.1.23-.18.33-.18.23-.45.41-.75.51-.15.04-.3.07-.45.07s-.3-.02-.44-.07c-.11-.04-.22-.1-.31-.17l-2.16-1.67c.15-.32.23-.68.23-1.04,0-.65-.25-1.27-.72-1.75,0,0,0,0-.01-.01h0s0,0,0,0c-.48-.47-1.1-.73-1.76-.73s-1.29.26-1.76.73c-.47.47-.73,1.1-.73,1.76s.26,1.29.73,1.76c.44.44,1,.69,1.61.73l1.36,5.82.09.39c-.16.08-.3.19-.43.32-.34.34-.53.8-.53,1.28v.81c0,.48.19.94.53,1.28.34.34.8.53,1.28.53h14.22c.48,0,.94-.19,1.28-.53.34-.34.53-.8.53-1.28v-.81c0-.48-.19-.94-.53-1.28-.13-.13-.28-.24-.43-.32l.09-.39,1.36-5.82c.61-.04,1.17-.29,1.61-.72.47-.47.73-1.1.73-1.76s-.26-1.29-.73-1.76c-.47-.47-1.1-.73-1.76-.73s-1.29.26-1.76.73c-.47.47-.73,1.09-.73,1.76,0,.37.08.72.23,1.04l-2.15,1.67c-.09.07-.2.13-.31.17-.14.05-.28.07-.44.07s-.3-.02-.45-.07c-.31-.09-.57-.27-.75-.5-.08-.1-.14-.21-.18-.33l-1.3-3.65c.18-.11.36-.25.51-.4.52-.52.8-1.2.8-1.93s-.27-1.38-.76-1.89c-.35-.4-1.05-.84-1.97-.84h0Z" />
    </g>
    <g id="RC_MAIN_LINE">
        <polygon class="cls-24" points="739.59 855.63 739.6 855.62 739.59 855.66 739.59 855.63" />
        <polyline class="cls-14"
            points="2343.04 1131.99 1962 1131.99 1802.47 971.02 1802.47 639.3 1638.73 475.55 1470.39 475.55 1177.1 768.85 1218.01 809.96 1193.1 834.86" />
        <polyline class="cls-14"
            points="978.07 911.82 962.13 927.77 950.17 927.77 937.78 915.38 913.13 915.38 899.51 929 899.51 938.52 889.07 948.95 871.25 948.95 841.39 919.08 788.63 919.08 752.75 919.08 738.88 905.21 713.35 930.74 713.35 930.74 691.27 952.61 656.4 917.74 666.93 907.2 654.76 895.03 672.19 877.6 641.82 847.23 750.07 738.98 864.87 738.98 954.98 829.09 1116.86 829.09 1157.98 870.2 1193.21 834.97" />
        <polyline class="cls-14" points="864.87 738.98 954.98 829.09 1116.86 829.09" />
        <circle class="cls-8" cx="654.31" cy="871.96" r="22.68" />
        <path class="cls-39"
            d="M649.15,877.03l-1.56-1.1c-1.47-1.05-3.83-2.7-4.39-3.07-.65,0-1.79.06-2.08.14l-.67.5-.19-.87c-.13-.6-.11-1.72.74-2.27.25-.36,1.01-1.29,2.25-1.29h6.86l-1.32,1.73,2.31,1.32-2.05.72,1.62,1.5-2.45.3.93,2.4ZM643.36,871.7c.21,0,.26,0,3.34,2.18l-.08-.22,1.45-.18-1.2-1.11,1.47-.51-1.26-.72.71-.93h-4.54c-.83,0-1.34.85-1.34.86l-.09.14-.15.08c-.19.09-.27.3-.3.5.63-.08,1.43-.1,1.99-.1Z" />
        <path class="cls-39"
            d="M649.8,880.46l-2.35-.86.25-.56c.4-.92.75-1.93.81-2.33-.78-.55-3.15-2.35-3.44-2.58l.7-.92c1.28.97,3.28,2.48,3.55,2.65.28.18.75.47-.32,3.07l.6.22,4.27-3.42,4.61,1.94,1.61-2.58-5.61-.76,2.04-2.45-3.21-1.63,11.52-3.36-13.76-3.24-1.82,6.56h-4.1v-1.15h3.22l1.88-6.78,19.08,4.5-12.91,3.77,1.9.97-1.63,1.96,5.32.72-3.07,4.92-4.88-2.05-4.24,3.39Z" />
        <rect class="cls-39" x="646.99" y="880.11" width="2.65" height="1.15"
            transform="translate(-439.47 993.11) rotate(-59.54)" />
        <rect class="cls-39" x="655.66" y="864.56" width="1.15" height="7.16"
            transform="translate(-343.13 1298.93) rotate(-76.23)" />
        <rect class="cls-39" x="659.39" y="863.49" width="1.15" height="7.16"
            transform="translate(-339.25 1301.75) rotate(-76.23)" />
        <polygon class="cls-39"
            points="648.74 883.05 648.09 882.4 647.26 882.4 646.86 882.97 645.92 882.32 646.66 881.25 648.57 881.25 649.55 882.23 648.74 883.05" />
        <rect class="cls-39" x="651.15" y="880.48" width="1.79" height="1.15"
            transform="translate(-437.95 996.5) rotate(-59.54)" />
        <polygon class="cls-39"
            points="652.69 883.05 652.04 882.4 651.21 882.4 650.81 882.97 649.86 882.32 650.6 881.25 652.52 881.25 653.5 882.23 652.69 883.05" />
        <polygon class="cls-39"
            points="653.61 881.39 651.11 880.46 651.26 878.02 652.41 878.09 652.31 879.68 653.11 879.98 655.04 876.78 656.03 877.37 653.61 881.39" />
        <path class="cls-39"
            d="M654.31,888.61c-9.3,0-16.87-7.57-16.87-16.87s7.57-16.87,16.87-16.87,16.87,7.57,16.87,16.87-7.57,16.87-16.87,16.87ZM654.31,855.97c-8.69,0-15.76,7.07-15.76,15.76s7.07,15.76,15.76,15.76,15.76-7.07,15.76-15.76-7.07-15.76-15.76-15.76Z" />
        <circle class="cls-8" cx="1046.4" cy="831.78" r="22.5" />
        <polygon class="cls-39"
            points="1053.3 838.9 1052.15 838.9 1052.15 826.7 1041.1 826.7 1041.1 838.86 1039.96 838.86 1039.96 825.56 1053.3 825.56 1053.3 838.9" />
        <path class="cls-39"
            d="M1050.4,841.68h-1.88v-7.86c0-.5-.2-.98-.55-1.33-.36-.36-.83-.55-1.33-.55-1.04,0-1.89.85-1.89,1.89v7.86s-1.81,0-1.81,0v-1.14h.67v-6.71c0-1.67,1.36-3.03,3.03-3.03.81,0,1.57.32,2.14.89.57.57.89,1.33.89,2.14v6.71h.74s0,1.14,0,1.14Z" />
        <path class="cls-39"
            d="M1043.34,843.09h-4.16v-4.17l1.97-.65,2.19.63v4.19ZM1040.33,841.94h1.87v-2.19l-1.02-.3-.84.28v2.2Z" />
        <path class="cls-39"
            d="M1054.14,843.09h-4.16v-4.17l1.97-.65,2.19.63v4.19ZM1051.13,841.94h1.87v-2.19l-1.02-.3-.84.28v2.2Z" />
        <path class="cls-39"
            d="M1044.89,826.7h-3.86v-4.04h3.86v4.04ZM1042.18,825.56h1.57v-1.75h-1.57v1.75Z" />
        <rect class="cls-39" x="1042.39" y="819.67" width="1.14" height="3.4" />
        <rect class="cls-39" x="1041.85" y="820.09" width="2.23" height="1.14" />
        <path class="cls-39"
            d="M1051.91,826.7h-3.86v-4.04h3.86v4.04ZM1049.2,825.56h1.57v-1.75h-1.57v1.75Z" />
        <rect class="cls-39" x="1049.41" y="819.67" width="1.14" height="3.4" />
        <rect class="cls-39" x="1048.87" y="820.09" width="2.23" height="1.14" />
        <path class="cls-39"
            d="M1058.59,841.75c-.22-.15-5.37-3.67-6.92-7.17-1.99-4.47-2.81-8.17-2.84-8.33l1.12-.25s.84,3.76,2.77,8.11c1.42,3.2,6.47,6.65,6.52,6.69l-.64.95Z" />
        <path class="cls-39"
            d="M1034.49,842.23l-.49-1.04s4.4-2.12,6.59-7.08c1.93-4.37,2.76-8.08,2.77-8.11l1.12.25c-.03.16-.87,3.86-2.84,8.33-2.37,5.36-6.95,7.56-7.15,7.65Z" />
        <path class="cls-39"
            d="M1046.4,848.52c-9.23,0-16.74-7.51-16.74-16.74s7.51-16.74,16.74-16.74,16.74,7.51,16.74,16.74-7.51,16.74-16.74,16.74ZM1046.4,816.14c-8.62,0-15.64,7.01-15.64,15.64s7.01,15.64,15.64,15.64,15.64-7.01,15.64-15.64-7.01-15.64-15.64-15.64Z" />
        <circle class="cls-8" cx="1548.94" cy="476.74" r="22.68" />
        <path class="cls-39"
            d="M1548.86,493.74c-9.3,0-16.87-7.57-16.87-16.87s7.57-16.87,16.87-16.87,16.87,7.57,16.87,16.87-7.57,16.87-16.87,16.87ZM1548.86,461.1c-8.69,0-15.76,7.07-15.76,15.76s7.07,15.76,15.76,15.76,15.76-7.07,15.76-15.76-7.07-15.76-15.76-15.76Z" />
        <path class="cls-39"
            d="M1553.08,485.87c-1.05,0-2.1-.37-2.96-1.1l-1.14-.98-1.14.98c-1.71,1.47-4.2,1.47-5.91,0l-1.14-.98-1.14.98c-1.37,1.18-3.73,1.25-5.22.65l.34-.82c1.22.5,3.24.41,4.31-.5l1.72-1.47,1.72,1.47c1.38,1.18,3.38,1.18,4.76,0l1.72-1.47,1.72,1.47c1.38,1.18,3.38,1.18,4.76,0l1.72-1.47,1.72,1.47c1.38,1.18,2.71,1.18,4.09,0l.58.68c-1.69,1.45-3.55,1.45-5.25,0l-1.14-.98-1.14.98c-.86.73-1.91,1.1-2.96,1.1Z" />
        <polygon class="cls-39"
            points="1559.88 485.22 1559.09 484.8 1562.15 479.09 1544.33 479.09 1544.33 478.2 1563.64 478.2 1559.88 485.22" />
        <polygon class="cls-39"
            points="1558.89 478.65 1558.01 478.65 1558.01 476.83 1543.27 476.83 1543.27 475.94 1558.89 475.94 1558.89 478.65" />
        <polygon class="cls-39"
            points="1555.76 476.11 1554.87 476.11 1554.87 474.01 1541.64 474.01 1541.64 476.11 1540.75 476.11 1540.75 473.12 1555.76 473.12 1555.76 476.11" />
        <path class="cls-39"
            d="M1546.97,474.01h-3.69v-6.56h3.69v6.56ZM1544.17,473.12h1.91v-4.78h-1.91v4.78Z" />
        <path class="cls-39"
            d="M1551.49,474.01h-3.69v-6.56h3.69v6.56ZM1548.7,473.12h1.91v-4.78h-1.91v4.78Z" />
        <rect class="cls-39" x="1543.73" y="469.61" width="2.74" height=".89" />
        <rect class="cls-39" x="1548.28" y="469.61" width="2.74" height=".89" />
        <path class="cls-39"
            d="M1538.02,485.51c-1.75-.97-2.83-2.81-2.83-4.8,0-3.02,2.46-5.48,5.48-5.48s5.48,2.46,5.48,5.48c0,1.98-1.07,3.81-2.79,4.78l-.44-.77c1.44-.81,2.34-2.35,2.34-4.01,0-2.53-2.06-4.6-4.6-4.6s-4.6,2.06-4.6,4.6c0,1.67.91,3.21,2.38,4.02l-.43.78Z" />
        <rect class="cls-39" x="1540.15" y="482.82" width="1.01" height=".89"
            transform="translate(1039.36 2018.15) rotate(-89.33)" />
        <rect class="cls-39" x="1536.47" y="481.92" width="2.58" height=".89"
            transform="translate(-36.71 826.5) rotate(-29.74)" />
        <rect class="cls-39" x="1537.33" y="477.72" width=".89" height="2.58"
            transform="translate(349.11 1565.89) rotate(-59.74)" />
        <rect class="cls-39" x="1539.39" y="476.91" width="2.58" height=".89"
            transform="translate(1056.56 2015.92) rotate(-89.75)" />
        <rect class="cls-39" x="1542.29" y="478.6" width="2.58" height=".89"
            transform="translate(-34.29 828.95) rotate(-29.74)" />
        <rect class="cls-39" x="1543.12" y="481.1" width=".89" height="2.58"
            transform="translate(349.11 1572.61) rotate(-59.74)" />
        <path class="cls-39"
            d="M1540.72,482.93c-1.31,0-2.37-1.07-2.37-2.37s1.07-2.37,2.37-2.37,2.37,1.07,2.37,2.37-1.07,2.37-2.37,2.37ZM1540.72,479.07c-.82,0-1.49.67-1.49,1.49s.67,1.49,1.49,1.49,1.49-.67,1.49-1.49-.67-1.49-1.49-1.49Z" />
        <circle class="cls-8" cx="806.43" cy="739.98" r="22.68" />
        <path class="cls-39"
            d="M806.43,756.86c-9.3,0-16.87-7.57-16.87-16.87s7.57-16.87,16.87-16.87,16.87,7.57,16.87,16.87-7.57,16.87-16.87,16.87ZM806.43,724.22c-8.69,0-15.76,7.07-15.76,15.76s7.07,15.76,15.76,15.76,15.76-7.07,15.76-15.76-7.07-15.76-15.76-15.76Z" />
        <path class="cls-39"
            d="M819.64,745.8l-3.63-4.54v-4.07h-2.28v-1.77h1.28v-1.15h-6.12v1.15h1.28v1.77h-3.45v-1.77h1.46v-3.73h-14.48v3.73h1.46v8.13h-1.26v1.15h1.08c-.06.25-.1.51-.1.78,0,1.73,1.41,3.15,3.15,3.15,1.49,0,2.73-1.04,3.06-2.43h.69c.33,1.39,1.57,2.43,3.06,2.43s2.73-1.04,3.06-2.43h.55c.33,1.39,1.57,2.43,3.06,2.43,1.73,0,3.15-1.41,3.15-3.15,0-.27-.04-.53-.1-.78h.3v2.61h4.06c.36,0,.69-.2.84-.54.15-.33.11-.71-.12-.98ZM811.33,735.42h1.25v1.77h-1.25v-1.77ZM794.87,734.27v-1.42h12.17v1.42h-12.17ZM805.58,735.42v7c-.23-.06-.48-.09-.73-.09-1.01,0-1.9.48-2.48,1.22h-1.85c-.58-.74-1.47-1.22-2.48-1.22-.63,0-1.22.19-1.71.51v-7.42h9.25ZM807.89,744.71h.58c-.03.11-.05.23-.07.34h-.44c-.02-.12-.04-.23-.07-.34ZM801.08,744.71h.72c-.03.11-.05.23-.07.34h-.58c-.02-.12-.04-.23-.07-.34ZM806.79,745.05h-3.89c.2-.89.99-1.56,1.94-1.56s1.74.67,1.94,1.56ZM798.04,747.48c-1.1,0-1.99-.89-1.99-1.99s.89-1.99,1.99-1.99c.95,0,1.75.67,1.94,1.56h-2.83v1.15h2.74c-.29.74-1.01,1.27-1.86,1.27ZM804.85,747.48c-.85,0-1.57-.53-1.86-1.27h3.71c-.29.74-1.01,1.27-1.86,1.27ZM811.51,747.48c-.85,0-1.57-.53-1.86-1.27h2.43v-1.15h-2.51c.2-.89.99-1.56,1.94-1.56,1.1,0,1.99.89,1.99,1.99s-.89,1.99-1.99,1.99ZM813.99,743.55c-.58-.74-1.47-1.22-2.48-1.22s-1.9.48-2.48,1.22h-1.71c-.17-.22-.37-.42-.6-.59v-4.62h8.13v5.2h-.87ZM816.02,744.81l.62,1.35h-.62v-1.35ZM817.91,746.16l-.74-1.61,1.29,1.61h-.55Z" />
        <path class="cls-39"
            d="M804.84,736.32h-7.62v4.49h7.62v-4.49ZM803.68,739.65h-5.31v-2.18h5.31v2.18Z" />
        <circle class="cls-8" cx="1801.64" cy="854.17" r="22.68" />
        <path class="cls-39"
            d="M1794.76,866.64h14.48l-2-5.06v-15.54h1.73v-4.65h-13.94v4.65h1.72v15.54l-1.99,5.06ZM1802.72,865.49h-1.43v-.75c0-.4.32-.72.72-.72.19,0,.37.07.51.21s.21.32.21.51v.75ZM1803.87,865.49v-.75c0-.5-.19-.97-.55-1.32-.35-.35-.82-.55-1.32-.55-1.03,0-1.87.84-1.87,1.87v.75h-3.69l1.27-3.23h8.56l1.27,3.23h-3.69ZM1796.18,844.9v-2.35h1.58v1.52h1.15v-1.52h1.29v1.52h1.15v-1.52h1.29v1.52h1.15v-1.52h1.29v1.52h1.15v-1.52h1.58v2.35h-11.64ZM1806.1,846.05v15.07h-8.19v-15.07h8.19Z" />
        <rect class="cls-39" x="1801.43" y="856.74" width="1.15" height="2.85" />
        <rect class="cls-39" x="1801.43" y="852.35" width="1.15" height="2.85" />
        <rect class="cls-39" x="1801.43" y="847.8" width="1.15" height="2.85" />
        <path class="cls-39"
            d="M1802,870.9c-9.3,0-16.87-7.57-16.87-16.87s7.57-16.87,16.87-16.87,16.87,7.57,16.87,16.87-7.57,16.87-16.87,16.87ZM1802,838.26c-8.69,0-15.76,7.07-15.76,15.76s7.07,15.76,15.76,15.76,15.76-7.07,15.76-15.76-7.07-15.76-15.76-15.76Z" />
        <circle class="cls-8" cx="2211.13" cy="1132.28" r="22.68" />
        <path class="cls-39"
            d="M2211.88,1138.07l.06.02c.33.1.68.15,1.01.15,1.42,0,2.68-.81,3.26-2.08.18.03.37.04.55.04,1.98,0,3.59-1.61,3.59-3.59,0-1.56-.99-2.92-2.45-3.41.39-.59.6-1.28.6-1.99,0-1.98-1.61-3.59-3.59-3.59-.07,0-.14,0-.22,0-.12-1.87-1.68-3.36-3.59-3.36s-3.47,1.49-3.59,3.36c-.07,0-.14,0-.22,0-1.98,0-3.59,1.61-3.59,3.59,0,.71.21,1.4.6,1.99-1.46.49-2.45,1.84-2.45,3.41,0,1.98,1.61,3.59,3.59,3.59.19,0,.38-.01.55-.04.59,1.27,1.85,2.08,3.26,2.08.34,0,.68-.05,1.01-.15l.06-.02.13-.07v2.27h-6.37v1.15h1.01v1.74h-1.01v1.15h13.89v-1.15h-1.01v-1.74h1.01v-1.15h-6.37v-2.32l.22.12ZM2210.51,1141.42v1.74h-1.52v-1.74h1.52ZM2206.3,1141.42h1.53v1.74h-1.53v-1.74ZM2215.86,1143.16h-1.52v-1.74h1.52v1.74ZM2213.19,1141.42v1.74h-1.52v-1.74h1.52ZM2209.93,1137c-.21.05-.42.08-.63.08-1,0-1.89-.6-2.27-1.54-.15-.38-.57-.62-.99-.57-.02,0-.04,0-.06.01-.16.03-.33.05-.49.05-1.35,0-2.44-1.09-2.44-2.44,0-1.14.77-2.11,1.87-2.37h.02c.34-.08.6-.34.69-.67.07-.29,0-.6-.2-.83-.34-.43-.53-.97-.53-1.52,0-1.35,1.09-2.44,2.44-2.44.11,0,.22,0,.32.02.49.07.95-.28,1.03-.77v-.03s.02-.1.02-.14c0-1.35,1.09-2.44,2.44-2.44s2.44,1.09,2.44,2.44c0,.05,0,.09.01.14v.03c.08.49.54.83,1.03.77.11-.01.21-.02.32-.02,1.35,0,2.44,1.09,2.44,2.44,0,.55-.19,1.1-.54,1.53-.19.22-.27.53-.19.82.08.34.35.59.69.67h.03c1.1.27,1.86,1.24,1.86,2.38,0,1.35-1.09,2.44-2.44,2.44-.17,0-.33-.02-.48-.05-.02,0-.07-.01-.09-.02-.42-.06-.82.18-.97.57-.37.93-1.26,1.54-2.27,1.54-.21,0-.42-.03-.63-.08l-1.2-.67-1.2.68Z" />
        <path class="cls-39"
            d="M2210.46,1125.29c-.13.12-.25.18-.34.18-.09,0-.17-.08-.19-.11l-.45.36-.46.35c.04.05.39.5,1,.56.04,0,.08,0,.12,0,.29,0,.69-.1,1.11-.49l-.78-.85Z" />
        <path class="cls-39"
            d="M2209.05,1132.35c-.13.11-.31.11-.45,0l-.71-.55-.67.53c-.13.11-.32.11-.45,0l-.31-.25-.72.9.31.25c.54.44,1.3.45,1.86.03.27.21.6.31.92.31s.68-.11.95-.34l.32-.26-.73-.9-.32.26Z" />
        <path class="cls-39"
            d="M2211.52,1129.73c.54.44,1.3.45,1.86.03.27.21.6.31.92.31s.68-.11.95-.34l.32-.26-.73-.9-.32.26c-.13.11-.31.11-.45,0l-.71-.55-.67.53c-.13.11-.32.11-.45,0l-.31-.25-.72.9.31.25Z" />
        <path class="cls-39"
            d="M2211.13,1149.16c-9.3,0-16.87-7.57-16.87-16.87s7.57-16.87,16.87-16.87,16.87,7.57,16.87,16.87-7.57,16.87-16.87,16.87ZM2211.13,1116.52c-8.69,0-15.76,7.07-15.76,15.76s7.07,15.76,15.76,15.76,15.76-7.07,15.76-15.76-7.07-15.76-15.76-15.76Z" />
        <circle class="cls-8" cx="1238.79" cy="713.59" r="22.37" />
        <path class="cls-39"
            d="M1250.05,713.41v-3.93h-2.39l-2.05-6.5h-13.4l-2.05,6.5h-2.64v3.93h5.22c0,.18,0,.35,0,.53.03,1.31-.33,2.58-1.03,3.68-.38.57-1.64,2.61-1.7,2.69l-.54.87h7.32v.88c0,1.18.96,2.15,2.15,2.15s2.15-.96,2.15-2.15v-.88h7.32l-.54-.87c-.05-.09-1.31-2.11-1.69-2.69-.71-1.1-1.07-2.37-1.04-3.69,0-.17,0-.35,0-.52h4.9ZM1228.66,710.62h2.34l2.05-6.5h11.73l2.05,6.5h2.09v1.66h-3.77c0-.09,0-.19,0-.28,0-.32,0-.64,0-.96,0-1.86-.87-3.66-2.32-4.81-.98-.77-2.12-1.14-3.69-1.18-.93-.03-2.15.03-3.27.66-.78.44-1.46,1.06-1.98,1.8-.72,1.03-1.12,2.28-1.12,3.54,0,.32,0,.64,0,.96,0,.09,0,.19,0,.28h-4.09v-1.66ZM1239.96,722.06c0,.56-.45,1.01-1.01,1.01s-1.01-.45-1.01-1.01v-.88h2.02v.88ZM1245.23,718.24h0c.21.33.73,1.16,1.14,1.81h-14.84c.41-.65.93-1.48,1.14-1.81.83-1.29,1.25-2.79,1.22-4.32,0-.64,0-1.28,0-1.92,0-.32,0-.64,0-.97,0-1.02.32-2.05.92-2.88.42-.6.98-1.1,1.62-1.46.69-.39,1.49-.55,2.68-.51,1.32.04,2.25.33,3.02.94,1.18.94,1.89,2.41,1.89,3.92,0,.32,0,.64,0,.97,0,.64,0,1.28,0,1.91-.03,1.54.39,3.03,1.22,4.32Z" />
        <path class="cls-39"
            d="M1238.79,730.24c-9.18,0-16.64-7.47-16.64-16.64s7.47-16.64,16.64-16.64,16.64,7.47,16.64,16.64-7.47,16.64-16.64,16.64ZM1238.79,698.05c-8.57,0-15.55,6.97-15.55,15.55s6.97,15.55,15.55,15.55,15.55-6.97,15.55-15.55-6.97-15.55-15.55-15.55Z" />
        <circle class="cls-8" cx="1356.28" cy="594.5" r="22.53" />
        <path class="cls-39"
            d="M1355.72,596.77c-1.2,0-2.18.98-2.18,2.18s.98,2.18,2.18,2.18,2.18-.98,2.18-2.18-.98-2.18-2.18-2.18ZM1355.72,600.13c-.65,0-1.18-.53-1.18-1.18s.53-1.18,1.18-1.18,1.18.53,1.18,1.18-.53,1.18-1.18,1.18Z" />
        <path class="cls-39"
            d="M1356.08,611.27c-9.25,0-16.77-7.52-16.77-16.77s7.52-16.77,16.77-16.77,16.77,7.52,16.77,16.77-7.52,16.77-16.77,16.77ZM1356.08,578.84c-8.64,0-15.66,7.03-15.66,15.66s7.03,15.66,15.66,15.66,15.66-7.03,15.66-15.66-7.03-15.66-15.66-15.66Z" />
        <path class="cls-39"
            d="M1365.54,603.33c0-2.28-1.85-4.13-4.13-4.13-.47,0-.93.08-1.35.23v-7.42h-.03c-.15-1.5-1.11-2.77-2.44-3.35v-2.61h-1.11v-1.93h1.23v-1.06h-1.23v-.87h-1.06v.87h-1.23v1.06h1.23v1.93h-1.11v2.61c-1.33.58-2.29,1.85-2.44,3.35h-.03v10.05c-.11-.01-.21-.02-.32-.02-1.46,0-2.66,1.19-2.66,2.66h0c-.47.26-.87.62-1.18,1.07h0c-.39.57-.6,1.24-.6,1.94l.98.72c0-.48.22-1.66.49-2.06l-.44-.3.44.3c.26-.39.63-.68,1.06-.86l.39-.16-.06-.41c-.01-.09-.02-.17-.02-.24,0-.88.72-1.59,1.59-1.59.73,0,1.36.49,1.54,1.2l.19.74.63-.44c.27-.19.58-.28.91-.28.64,0,1.22.38,1.47.98l.39.92.55-.83c.23-.36.56-.64.95-.83l.38-.18-.09-.41c-.04-.21-.07-.42-.07-.64,0-1.69,1.38-3.07,3.07-3.07s3.07,1.38,3.07,3.07c0,.94-.43,1.82-1.18,2.41l-.38.3.26.4c.16.25.26.52.32.8.02.25.11,1.47-.25,2.11l1.34-.99.02-.66c0-.49-.11-.98-.31-1.42.79-.77,1.24-1.82,1.24-2.95ZM1355.35,587.1h1.17v1.25c-.19-.03-.39-.05-.58-.05s-.39.02-.58.05v-1.25ZM1355.94,589.37c1.5,0,2.75,1.09,3,2.51h-6c.25-1.43,1.5-2.51,3-2.51ZM1359,599.99c-1.04.75-1.72,1.97-1.72,3.35,0,.15,0,.31.03.46-.18.12-.36.25-.51.4-.5-.58-1.23-.93-2.02-.93-.32,0-.64.06-.93.17-.22-.42-.56-.76-.95-1v-5.11h1.08l1.98-1.93,1.99,1.93h1.06v2.67ZM1359,596.26h-.63l-2.43-2.34-2.41,2.34h-.65v-3.19h6.11v3.19Z" />
        <circle class="cls-8" cx="2346.04" cy="1131.99" r="8.9" />
        <circle class="cls-8" cx="979.67" cy="909.89" r="8.9" />
    </g>
    <g id="LABELS">
        <text id="label-ludlow" class="cls-3 map-point" transform="translate(743.79 698.95)">
            <tspan class="cls-50" x="0" y="0">L</tspan>
            <tspan x="16.8" y="0">UD</tspan>
            <tspan class="cls-44" x="59.76" y="0">L</tspan>
            <tspan class="cls-49" x="76.67" y="0">O</tspan>
            <tspan class="cls-51" x="98.46" y="0">W</tspan>
        </text>
    
        <text id="label-bromley" class="cls-3 map-point" transform="translate(639.73 1025.76)">
            <tspan x="0" y="0">B</tspan>
            <tspan class="cls-54" x="21.21" y="0">R</tspan>
            <tspan class="cls-29" x="42.17" y="0">OMLE</tspan>
            <tspan class="cls-48" x="127.13" y="0">Y</tspan>
        </text>
    
        <rect id="rect-cincinnati" class="cls-21" x="960.05" y="538.25" width="184.09" height="27.47" />
        <text id="label-cincinnati" class="cls-2" transform="translate(963.7 559.27)">
            <tspan x="0" y="0">CINCINN</tspan>
            <tspan class="cls-38" x="124.06" y="0">A</tspan>
            <tspan x="142.73" y="0">TI</tspan>
        </text>
    
        <circle id="circle-cincinnati" class="cls-20" cx="1047.59" cy="511.03" r="22.68" />
        <path id="path-cincinnati-outline" class="cls-25" 
              d="M1047.59,527.9c-9.3,0-16.87-7.57-16.87-16.87s7.57-16.87,16.87-16.87,16.87,7.57,16.87,16.87-7.57,16.87-16.87,16.87Z 
              M1047.59,495.27c-8.69,0-15.76,7.07-15.76,15.76s7.07,15.76,15.76,15.76,15.76-7.07,15.76-15.76-7.07-15.76-15.76-15.76Z" />
    
        <text id="label-dayton" class="cls-3 map-point" transform="translate(1488.9 545.43)">
            <tspan class="cls-47" x="0" y="0">D</tspan>
            <tspan class="cls-40" x="20.51" y="0">A</tspan>
            <tspan x="39.13" y="0">Y</tspan>
            <tspan class="cls-42" x="58.36" y="0">T</tspan>
            <tspan class="cls-29" x="76.22" y="0">ON</tspan>
        </text>
    
        <text id="label-fort-thomas" class="cls-3 map-point" transform="translate(1639.34 847.72)">
            <tspan class="cls-45" x="0" y="0">F</tspan>
            <tspan class="cls-29" x="18.51" y="0">O</tspan>
            <tspan class="cls-45" x="40.96" y="0">R</tspan>
            <tspan class="cls-50" x="61.74" y="0">T</tspan>
            <tspan x="-24.8" y="27.02">THOM</tspan>
            <tspan class="cls-50" x="63.82" y="27.02">A</tspan>
            <tspan class="cls-29" x="84.31" y="27.02">S</tspan>
        </text>
    
        <text id="label-covington" class="cls-3 map-point" transform="translate(1027.69 948.95)">
            <tspan class="cls-55" x="0" y="0">C</tspan>
            <tspan class="cls-46" x="20.06" y="0">O</tspan>
            <tspan x="41.68" y="0">VIN</tspan>
            <tspan class="cls-44" x="92.36" y="0">G</tspan>
            <tspan class="cls-43" x="113.35" y="0">T</tspan>
            <tspan x="131.2" y="0">ON</tspan>
        </text>
    
        <text id="label-newport" class="cls-3 map-point" transform="translate(1270.19 763.18)">
            <tspan x="0" y="0">NEWPO</tspan>
            <tspan class="cls-45" x="113.26" y="0">R</tspan>
            <tspan class="cls-50" x="134.04" y="0">T</tspan>
        </text>
    
        <text id="label-bellevue" class="cls-3 map-point" transform="translate(1384.49 646.5)">
            <tspan x="0" y="0">BELLEVUE</tspan>
        </text>
    
        <text id="label-silver-grove" class="cls-3 map-point" transform="translate(2105.05 1203.83)">
            <tspan x="0" y="0">SI</tspan>
            <tspan class="cls-41" x="28.26" y="0">L</tspan>
            <tspan x="42.85" y="0">VER G</tspan>
            <tspan class="cls-53" x="131.02" y="0">R</tspan>
            <tspan class="cls-46" x="151.98" y="0">O</tspan>
            <tspan x="173.6" y="0">VE</tspan>
        </text>
    </g>
</svg>